<?xml version="1.0" encoding="utf-8" standalone="no"?>
<!DOCTYPE svg PUBLIC "-//W3C//DTD SVG 1.1//EN"
  "http://www.w3.org/Graphics/SVG/1.1/DTD/svg11.dtd">
<!-- Created with matplotlib (http://matplotlib.org/) -->
<svg height="259pt" version="1.1" viewBox="0 0 864 259" width="864pt" xmlns="http://www.w3.org/2000/svg" xmlns:xlink="http://www.w3.org/1999/xlink">
 <defs>
  <style type="text/css">
*{stroke-linecap:butt;stroke-linejoin:round;}
  </style>
 </defs>
 <g id="figure_1">
  <g id="patch_1">
   <path d="
M0 259.2
L864 259.2
L864 0
L0 0
z
" style="fill:#ffffff;"/>
  </g>
  <g id="axes_1">
   <g id="patch_2">
    <path d="
M108 226.8
L412.364 226.8
L412.364 25.92
L108 25.92
z
" style="fill:#ffffff;"/>
   </g>
   <g id="patch_3">
    <path clip-path="url(#p451adb6d17)" d="
M108 193.32
L146.045 193.32
L146.045 117.863
L108 117.863
z
" style="fill:#d0d0d0;stroke:#000000;"/>
   </g>
   <g id="patch_4">
    <path clip-path="url(#p451adb6d17)" d="
M146.045 193.32
L184.091 193.32
L184.091 55.3733
L146.045 55.3733
z
" style="fill:#d0d0d0;stroke:#000000;"/>
   </g>
   <g id="patch_5">
    <path clip-path="url(#p451adb6d17)" d="
M184.091 193.32
L222.136 193.32
L222.136 35.1695
L184.091 35.1695
z
" style="fill:#d0d0d0;stroke:#000000;"/>
   </g>
   <g id="patch_6">
    <path clip-path="url(#p451adb6d17)" d="
M222.136 193.32
L260.182 193.32
L260.182 27.5635
L222.136 27.5635
z
" style="fill:#d0d0d0;stroke:#000000;"/>
   </g>
   <g id="patch_7">
    <path clip-path="url(#p451adb6d17)" d="
M260.182 193.32
L298.227 193.32
L298.227 29.443
L260.182 29.443
z
" style="fill:#d0d0d0;stroke:#000000;"/>
   </g>
   <g id="patch_8">
    <path clip-path="url(#p451adb6d17)" d="
M298.227 193.32
L336.273 193.32
L336.273 34.0829
L298.227 34.0829
z
" style="fill:#d0d0d0;stroke:#000000;"/>
   </g>
   <g id="patch_9">
    <path clip-path="url(#p451adb6d17)" d="
M336.273 193.32
L374.318 193.32
L374.318 64.1206
L336.273 64.1206
z
" style="fill:#d0d0d0;stroke:#000000;"/>
   </g>
   <g id="patch_10">
    <path clip-path="url(#p451adb6d17)" d="
M374.318 193.32
L412.364 193.32
L412.364 98.4676
L374.318 98.4676
z
" style="fill:#d0d0d0;stroke:#000000;"/>
   </g>
   <g id="line2d_1">
    <path clip-path="url(#p451adb6d17)" d="
M108 193.32
L109.268 171.754
L110.536 162.885
L111.805 156.123
L113.073 150.459
L114.341 145.502
L116.877 136.982
L119.414 129.714
L121.95 123.305
L124.486 117.539
L127.023 112.278
L129.559 107.428
L132.095 102.924
L135.9 96.7118
L139.705 91.0464
L143.509 85.8416
L147.314 81.0333
L151.118 76.5726
L154.923 72.4209
L158.727 68.5474
L162.532 64.9269
L167.605 60.4577
L172.677 56.3611
L177.75 52.6047
L182.823 49.1618
L187.895 46.0104
L192.968 43.1322
L198.041 40.5118
L203.114 38.136
L208.186 35.9939
L213.259 34.076
L218.332 32.3742
L223.405 30.8818
L228.477 29.5931
L233.55 28.5032
L238.623 27.6083
L243.695 26.9052
L248.768 26.3915
L253.841 26.0654
L258.914 25.9258
L263.986 25.9723
L269.059 26.2051
L274.132 26.6248
L279.205 27.233
L284.277 28.0316
L289.35 29.0236
L294.423 30.2123
L299.495 31.6023
L304.568 33.1985
L309.641 35.0075
L314.714 37.0364
L319.786 39.2941
L324.859 41.7906
L329.932 44.5382
L335.005 47.5508
L340.077 50.8455
L345.15 54.4422
L350.223 58.365
L355.295 62.6434
L359.1 66.107
L362.905 69.8093
L366.709 73.7725
L370.514 78.0234
L374.318 82.5953
L378.123 87.5297
L381.927 92.88
L385.732 98.7168
L389.536 105.137
L392.073 109.806
L394.609 114.852
L397.145 120.352
L399.682 126.418
L402.218 133.222
L404.755 141.049
L406.023 145.502
L407.291 150.459
L408.559 156.123
L409.827 162.885
L411.095 171.754
L411.095 171.754" style="fill:none;stroke:#000000;stroke-linecap:square;"/>
   </g>
   <g id="line2d_2">
    <path clip-path="url(#p451adb6d17)" d="
M124.337 198.342
L124.337 117.863" style="fill:none;stroke:#ff0000;stroke-linecap:square;"/>
   </g>
   <g id="line2d_3">
    <path clip-path="url(#p451adb6d17)" d="
M173.969 198.342
L173.969 55.3733" style="fill:none;stroke:#ff0000;stroke-linecap:square;"/>
   </g>
   <g id="line2d_4">
    <path clip-path="url(#p451adb6d17)" d="
M210.296 198.342
L210.296 35.1695" style="fill:none;stroke:#ff0000;stroke-linecap:square;"/>
   </g>
   <g id="line2d_5">
    <path clip-path="url(#p451adb6d17)" d="
M238.91 198.342
L238.91 27.5635" style="fill:none;stroke:#ff0000;stroke-linecap:square;"/>
   </g>
   <g id="line2d_6">
    <path clip-path="url(#p451adb6d17)" d="
M291.239 198.342
L291.239 29.443" style="fill:none;stroke:#ff0000;stroke-linecap:square;"/>
   </g>
   <g id="line2d_7">
    <path clip-path="url(#p451adb6d17)" d="
M307.124 198.342
L307.124 34.0829" style="fill:none;stroke:#ff0000;stroke-linecap:square;"/>
   </g>
   <g id="line2d_8">
    <path clip-path="url(#p451adb6d17)" d="
M356.949 198.342
L356.949 64.1206" style="fill:none;stroke:#ff0000;stroke-linecap:square;"/>
   </g>
   <g id="line2d_9">
    <path clip-path="url(#p451adb6d17)" d="
M385.576 198.342
L385.576 98.4676" style="fill:none;stroke:#ff0000;stroke-linecap:square;"/>
   </g>
   <g id="matplotlib.axis_1">
    <g id="xtick_1">
     <g id="line2d_10">
      <defs>
       <path d="
M0 0
L0 -4" id="m93b0483c22" style="stroke:#000000;stroke-width:0.5;"/>
      </defs>
      <g>
       <use style="stroke:#000000;stroke-width:0.5;" x="108.0" xlink:href="#m93b0483c22" y="226.8"/>
      </g>
     </g>
     <g id="line2d_11">
      <defs>
       <path d="
M0 0
L0 4" id="m741efc42ff" style="stroke:#000000;stroke-width:0.5;"/>
      </defs>
      <g>
       <use style="stroke:#000000;stroke-width:0.5;" x="108.0" xlink:href="#m741efc42ff" y="25.92"/>
      </g>
     </g>
     <g id="text_1">
      <!-- −1.0 -->
      <defs>
       <path d="
M4.15625 35.2969
Q4.15625 48 6.76562 55.7344
Q9.375 63.4844 14.5156 67.6719
Q19.6719 71.875 27.4844 71.875
Q33.25 71.875 37.5938 69.5469
Q41.9375 67.2344 44.7656 62.8594
Q47.6094 58.5 49.2188 52.2188
Q50.8281 45.9531 50.8281 35.2969
Q50.8281 22.7031 48.2344 14.9688
Q45.6562 7.23438 40.5 3
Q35.3594 -1.21875 27.4844 -1.21875
Q17.1406 -1.21875 11.2344 6.20312
Q4.15625 15.1406 4.15625 35.2969
M13.1875 35.2969
Q13.1875 17.6719 17.3125 11.8281
Q21.4375 6 27.4844 6
Q33.5469 6 37.6719 11.8594
Q41.7969 17.7188 41.7969 35.2969
Q41.7969 52.9844 37.6719 58.7812
Q33.5469 64.5938 27.3906 64.5938
Q21.3438 64.5938 17.7188 59.4688
Q13.1875 52.9375 13.1875 35.2969" id="ArialMT-30"/>
       <path d="
M37.25 0
L28.4688 0
L28.4688 56
Q25.2969 52.9844 20.1406 49.9531
Q14.9844 46.9219 10.8906 45.4062
L10.8906 53.9062
Q18.2656 57.375 23.7812 62.2969
Q29.2969 67.2344 31.5938 71.875
L37.25 71.875
z
" id="ArialMT-31"/>
       <path d="
M52.8281 31.2031
L5.5625 31.2031
L5.5625 39.4062
L52.8281 39.4062
z
" id="ArialMT-2212"/>
       <path d="
M9.07812 0
L9.07812 10.0156
L19.0938 10.0156
L19.0938 0
z
" id="ArialMT-2e"/>
      </defs>
      <g transform="translate(98.646875 237.9578125)scale(0.1 -0.1)">
       <use xlink:href="#ArialMT-2212"/>
       <use x="58.3984375" xlink:href="#ArialMT-31"/>
       <use x="114.013671875" xlink:href="#ArialMT-2e"/>
       <use x="141.796875" xlink:href="#ArialMT-30"/>
      </g>
     </g>
    </g>
    <g id="xtick_2">
     <g id="line2d_12">
      <g>
       <use style="stroke:#000000;stroke-width:0.5;" x="184.090909091" xlink:href="#m93b0483c22" y="226.8"/>
      </g>
     </g>
     <g id="line2d_13">
      <g>
       <use style="stroke:#000000;stroke-width:0.5;" x="184.090909091" xlink:href="#m741efc42ff" y="25.92"/>
      </g>
     </g>
     <g id="text_2">
      <!-- −0.5 -->
      <defs>
       <path d="
M4.15625 18.75
L13.375 19.5312
Q14.4062 12.7969 18.1406 9.39062
Q21.875 6 27.1562 6
Q33.5 6 37.8906 10.7812
Q42.2812 15.5781 42.2812 23.4844
Q42.2812 31 38.0625 35.3438
Q33.8438 39.7031 27 39.7031
Q22.75 39.7031 19.3281 37.7656
Q15.9219 35.8438 13.9688 32.7656
L5.71875 33.8438
L12.6406 70.6094
L48.25 70.6094
L48.25 62.2031
L19.6719 62.2031
L15.8281 42.9688
Q22.2656 47.4688 29.3438 47.4688
Q38.7188 47.4688 45.1562 40.9688
Q51.6094 34.4688 51.6094 24.2656
Q51.6094 14.5469 45.9531 7.46875
Q39.0625 -1.21875 27.1562 -1.21875
Q17.3906 -1.21875 11.2031 4.25
Q5.03125 9.71875 4.15625 18.75" id="ArialMT-35"/>
      </defs>
      <g transform="translate(174.698721591 237.9578125)scale(0.1 -0.1)">
       <use xlink:href="#ArialMT-2212"/>
       <use x="58.3984375" xlink:href="#ArialMT-30"/>
       <use x="114.013671875" xlink:href="#ArialMT-2e"/>
       <use x="141.796875" xlink:href="#ArialMT-35"/>
      </g>
     </g>
    </g>
    <g id="xtick_3">
     <g id="line2d_14">
      <g>
       <use style="stroke:#000000;stroke-width:0.5;" x="260.181818182" xlink:href="#m93b0483c22" y="226.8"/>
      </g>
     </g>
     <g id="line2d_15">
      <g>
       <use style="stroke:#000000;stroke-width:0.5;" x="260.181818182" xlink:href="#m741efc42ff" y="25.92"/>
      </g>
     </g>
     <g id="text_3">
      <!-- 0.0 -->
      <g transform="translate(253.678693182 237.9578125)scale(0.1 -0.1)">
       <use xlink:href="#ArialMT-30"/>
       <use x="55.615234375" xlink:href="#ArialMT-2e"/>
       <use x="83.3984375" xlink:href="#ArialMT-30"/>
      </g>
     </g>
    </g>
    <g id="xtick_4">
     <g id="line2d_16">
      <g>
       <use style="stroke:#000000;stroke-width:0.5;" x="336.272727273" xlink:href="#m93b0483c22" y="226.8"/>
      </g>
     </g>
     <g id="line2d_17">
      <g>
       <use style="stroke:#000000;stroke-width:0.5;" x="336.272727273" xlink:href="#m741efc42ff" y="25.92"/>
      </g>
     </g>
     <g id="text_4">
      <!-- 0.5 -->
      <g transform="translate(329.730539773 237.9578125)scale(0.1 -0.1)">
       <use xlink:href="#ArialMT-30"/>
       <use x="55.615234375" xlink:href="#ArialMT-2e"/>
       <use x="83.3984375" xlink:href="#ArialMT-35"/>
      </g>
     </g>
    </g>
    <g id="xtick_5">
     <g id="line2d_18">
      <g>
       <use style="stroke:#000000;stroke-width:0.5;" x="412.363636364" xlink:href="#m93b0483c22" y="226.8"/>
      </g>
     </g>
     <g id="line2d_19">
      <g>
       <use style="stroke:#000000;stroke-width:0.5;" x="412.363636364" xlink:href="#m741efc42ff" y="25.92"/>
      </g>
     </g>
     <g id="text_5">
      <!-- 1.0 -->
      <g transform="translate(406.197230114 237.9578125)scale(0.1 -0.1)">
       <use xlink:href="#ArialMT-31"/>
       <use x="55.615234375" xlink:href="#ArialMT-2e"/>
       <use x="83.3984375" xlink:href="#ArialMT-30"/>
      </g>
     </g>
    </g>
   </g>
   <g id="matplotlib.axis_2">
    <g id="ytick_1">
     <g id="line2d_20">
      <defs>
       <path d="
M0 0
L4 0" id="m728421d6d4" style="stroke:#000000;stroke-width:0.5;"/>
      </defs>
      <g>
       <use style="stroke:#000000;stroke-width:0.5;" x="108.0" xlink:href="#m728421d6d4" y="226.8"/>
      </g>
     </g>
     <g id="line2d_21">
      <defs>
       <path d="
M0 0
L-4 0" id="mcb0005524f" style="stroke:#000000;stroke-width:0.5;"/>
      </defs>
      <g>
       <use style="stroke:#000000;stroke-width:0.5;" x="412.363636364" xlink:href="#mcb0005524f" y="226.8"/>
      </g>
     </g>
     <g id="text_6">
      <!-- −0.2 -->
      <defs>
       <path d="
M50.3438 8.45312
L50.3438 0
L3.03125 0
Q2.9375 3.17188 4.04688 6.10938
Q5.85938 10.9375 9.82812 15.625
Q13.8125 20.3125 21.3438 26.4688
Q33.0156 36.0312 37.1094 41.625
Q41.2188 47.2188 41.2188 52.2031
Q41.2188 57.4219 37.4688 61
Q33.7344 64.5938 27.7344 64.5938
Q21.3906 64.5938 17.5781 60.7812
Q13.7656 56.9844 13.7188 50.25
L4.6875 51.1719
Q5.60938 61.2812 11.6562 66.5781
Q17.7188 71.875 27.9375 71.875
Q38.2344 71.875 44.2344 66.1562
Q50.25 60.4531 50.25 52
Q50.25 47.7031 48.4844 43.5469
Q46.7344 39.4062 42.6562 34.8125
Q38.5781 30.2188 29.1094 22.2188
Q21.1875 15.5781 18.9375 13.2031
Q16.7031 10.8438 15.2344 8.45312
z
" id="ArialMT-32"/>
      </defs>
      <g transform="translate(85.3421875 229.38515625)scale(0.1 -0.1)">
       <use xlink:href="#ArialMT-2212"/>
       <use x="58.3984375" xlink:href="#ArialMT-30"/>
       <use x="114.013671875" xlink:href="#ArialMT-2e"/>
       <use x="141.796875" xlink:href="#ArialMT-32"/>
      </g>
     </g>
    </g>
    <g id="ytick_2">
     <g id="line2d_22">
      <g>
       <use style="stroke:#000000;stroke-width:0.5;" x="108.0" xlink:href="#m728421d6d4" y="193.32"/>
      </g>
     </g>
     <g id="line2d_23">
      <g>
       <use style="stroke:#000000;stroke-width:0.5;" x="412.363636364" xlink:href="#mcb0005524f" y="193.32"/>
      </g>
     </g>
     <g id="text_7">
      <!-- 0.0 -->
      <g transform="translate(90.99375 195.90515625)scale(0.1 -0.1)">
       <use xlink:href="#ArialMT-30"/>
       <use x="55.615234375" xlink:href="#ArialMT-2e"/>
       <use x="83.3984375" xlink:href="#ArialMT-30"/>
      </g>
     </g>
    </g>
    <g id="ytick_3">
     <g id="line2d_24">
      <g>
       <use style="stroke:#000000;stroke-width:0.5;" x="108.0" xlink:href="#m728421d6d4" y="159.84"/>
      </g>
     </g>
     <g id="line2d_25">
      <g>
       <use style="stroke:#000000;stroke-width:0.5;" x="412.363636364" xlink:href="#mcb0005524f" y="159.84"/>
      </g>
     </g>
     <g id="text_8">
      <!-- 0.2 -->
      <g transform="translate(91.0421875 162.42515625)scale(0.1 -0.1)">
       <use xlink:href="#ArialMT-30"/>
       <use x="55.615234375" xlink:href="#ArialMT-2e"/>
       <use x="83.3984375" xlink:href="#ArialMT-32"/>
      </g>
     </g>
    </g>
    <g id="ytick_4">
     <g id="line2d_26">
      <g>
       <use style="stroke:#000000;stroke-width:0.5;" x="108.0" xlink:href="#m728421d6d4" y="126.36"/>
      </g>
     </g>
     <g id="line2d_27">
      <g>
       <use style="stroke:#000000;stroke-width:0.5;" x="412.363636364" xlink:href="#mcb0005524f" y="126.36"/>
      </g>
     </g>
     <g id="text_9">
      <!-- 0.4 -->
      <defs>
       <path d="
M32.3281 0
L32.3281 17.1406
L1.26562 17.1406
L1.26562 25.2031
L33.9375 71.5781
L41.1094 71.5781
L41.1094 25.2031
L50.7812 25.2031
L50.7812 17.1406
L41.1094 17.1406
L41.1094 0
z

M32.3281 25.2031
L32.3281 57.4688
L9.90625 25.2031
z
" id="ArialMT-34"/>
      </defs>
      <g transform="translate(90.9984375 128.94515625)scale(0.1 -0.1)">
       <use xlink:href="#ArialMT-30"/>
       <use x="55.615234375" xlink:href="#ArialMT-2e"/>
       <use x="83.3984375" xlink:href="#ArialMT-34"/>
      </g>
     </g>
    </g>
    <g id="ytick_5">
     <g id="line2d_28">
      <g>
       <use style="stroke:#000000;stroke-width:0.5;" x="108.0" xlink:href="#m728421d6d4" y="92.88"/>
      </g>
     </g>
     <g id="line2d_29">
      <g>
       <use style="stroke:#000000;stroke-width:0.5;" x="412.363636364" xlink:href="#mcb0005524f" y="92.88"/>
      </g>
     </g>
     <g id="text_10">
      <!-- 0.6 -->
      <defs>
       <path d="
M49.75 54.0469
L41.0156 53.375
Q39.8438 58.5469 37.7031 60.8906
Q34.125 64.6562 28.9062 64.6562
Q24.7031 64.6562 21.5312 62.3125
Q17.3906 59.2812 14.9844 53.4688
Q12.5938 47.6562 12.5 36.9219
Q15.6719 41.75 20.2656 44.0938
Q24.8594 46.4375 29.8906 46.4375
Q38.6719 46.4375 44.8438 39.9688
Q51.0312 33.5 51.0312 23.25
Q51.0312 16.5 48.125 10.7188
Q45.2188 4.9375 40.1406 1.85938
Q35.0625 -1.21875 28.6094 -1.21875
Q17.625 -1.21875 10.6875 6.85938
Q3.76562 14.9375 3.76562 33.5
Q3.76562 54.25 11.4219 63.6719
Q18.1094 71.875 29.4375 71.875
Q37.8906 71.875 43.2812 67.1406
Q48.6875 62.4062 49.75 54.0469
M13.875 23.1875
Q13.875 18.6562 15.7969 14.5
Q17.7188 10.3594 21.1875 8.17188
Q24.6562 6 28.4688 6
Q34.0312 6 38.0312 10.4844
Q42.0469 14.9844 42.0469 22.7031
Q42.0469 30.125 38.0781 34.3906
Q34.125 38.6719 28.125 38.6719
Q22.1719 38.6719 18.0156 34.3906
Q13.875 30.125 13.875 23.1875" id="ArialMT-36"/>
      </defs>
      <g transform="translate(90.9734375 95.46515625)scale(0.1 -0.1)">
       <use xlink:href="#ArialMT-30"/>
       <use x="55.615234375" xlink:href="#ArialMT-2e"/>
       <use x="83.3984375" xlink:href="#ArialMT-36"/>
      </g>
     </g>
    </g>
    <g id="ytick_6">
     <g id="line2d_30">
      <g>
       <use style="stroke:#000000;stroke-width:0.5;" x="108.0" xlink:href="#m728421d6d4" y="59.4"/>
      </g>
     </g>
     <g id="line2d_31">
      <g>
       <use style="stroke:#000000;stroke-width:0.5;" x="412.363636364" xlink:href="#mcb0005524f" y="59.4"/>
      </g>
     </g>
     <g id="text_11">
      <!-- 0.8 -->
      <defs>
       <path d="
M17.6719 38.8125
Q12.2031 40.8281 9.5625 44.5312
Q6.9375 48.25 6.9375 53.4219
Q6.9375 61.2344 12.5469 66.5469
Q18.1719 71.875 27.4844 71.875
Q36.8594 71.875 42.5781 66.4219
Q48.2969 60.9844 48.2969 53.1719
Q48.2969 48.1875 45.6719 44.5
Q43.0625 40.8281 37.75 38.8125
Q44.3438 36.6719 47.7812 31.875
Q51.2188 27.0938 51.2188 20.4531
Q51.2188 11.2812 44.7188 5.03125
Q38.2344 -1.21875 27.6406 -1.21875
Q17.0469 -1.21875 10.5469 5.04688
Q4.04688 11.3281 4.04688 20.7031
Q4.04688 27.6875 7.59375 32.3906
Q11.1406 37.1094 17.6719 38.8125
M15.9219 53.7188
Q15.9219 48.6406 19.1875 45.4062
Q22.4688 42.1875 27.6875 42.1875
Q32.7656 42.1875 36.0156 45.375
Q39.2656 48.5781 39.2656 53.2188
Q39.2656 58.0625 35.9062 61.3594
Q32.5625 64.6562 27.5938 64.6562
Q22.5625 64.6562 19.2344 61.4219
Q15.9219 58.2031 15.9219 53.7188
M13.0938 20.6562
Q13.0938 16.8906 14.875 13.375
Q16.6562 9.85938 20.1719 7.92188
Q23.6875 6 27.7344 6
Q34.0312 6 38.125 10.0469
Q42.2344 14.1094 42.2344 20.3594
Q42.2344 26.7031 38.0156 30.8594
Q33.7969 35.0156 27.4375 35.0156
Q21.2344 35.0156 17.1562 30.9062
Q13.0938 26.8125 13.0938 20.6562" id="ArialMT-38"/>
      </defs>
      <g transform="translate(90.9546875 61.98515625)scale(0.1 -0.1)">
       <use xlink:href="#ArialMT-30"/>
       <use x="55.615234375" xlink:href="#ArialMT-2e"/>
       <use x="83.3984375" xlink:href="#ArialMT-38"/>
      </g>
     </g>
    </g>
    <g id="ytick_7">
     <g id="line2d_32">
      <g>
       <use style="stroke:#000000;stroke-width:0.5;" x="108.0" xlink:href="#m728421d6d4" y="25.92"/>
      </g>
     </g>
     <g id="line2d_33">
      <g>
       <use style="stroke:#000000;stroke-width:0.5;" x="412.363636364" xlink:href="#mcb0005524f" y="25.92"/>
      </g>
     </g>
     <g id="text_12">
      <!-- 1.0 -->
      <g transform="translate(91.6671875 28.50515625)scale(0.1 -0.1)">
       <use xlink:href="#ArialMT-31"/>
       <use x="55.615234375" xlink:href="#ArialMT-2e"/>
       <use x="83.3984375" xlink:href="#ArialMT-30"/>
      </g>
     </g>
    </g>
   </g>
   <g id="patch_11">
    <path d="
M108 25.92
L412.364 25.92" style="fill:none;stroke:#000000;"/>
   </g>
   <g id="patch_12">
    <path d="
M412.364 226.8
L412.364 25.92" style="fill:none;stroke:#000000;"/>
   </g>
   <g id="patch_13">
    <path d="
M108 226.8
L412.364 226.8" style="fill:none;stroke:#000000;"/>
   </g>
   <g id="patch_14">
    <path d="
M108 226.8
L108 25.92" style="fill:none;stroke:#000000;"/>
   </g>
   <g id="text_13">
    <!-- -0.89 -->
    <defs>
     <path d="
M5.46875 16.5469
L13.9219 17.3281
Q14.9844 11.375 18.0156 8.6875
Q21.0469 6 25.7812 6
Q29.8281 6 32.875 7.85938
Q35.9375 9.71875 37.8906 12.8125
Q39.8438 15.9219 41.1562 21.1875
Q42.4844 26.4688 42.4844 31.9375
Q42.4844 32.5156 42.4375 33.6875
Q39.7969 29.5 35.2344 26.875
Q30.6719 24.2656 25.3438 24.2656
Q16.4531 24.2656 10.2969 30.7031
Q4.15625 37.1562 4.15625 47.7031
Q4.15625 58.5938 10.5781 65.2344
Q17 71.875 26.6562 71.875
Q33.6406 71.875 39.4219 68.1094
Q45.2188 64.3594 48.2188 57.3906
Q51.2188 50.4375 51.2188 37.25
Q51.2188 23.5312 48.2344 15.4062
Q45.2656 7.28125 39.375 3.03125
Q33.5 -1.21875 25.5938 -1.21875
Q17.1875 -1.21875 11.8594 3.4375
Q6.54688 8.10938 5.46875 16.5469
M41.4531 48.1406
Q41.4531 55.7188 37.4219 60.1562
Q33.4062 64.5938 27.7344 64.5938
Q21.875 64.5938 17.5312 59.8125
Q13.1875 55.0312 13.1875 47.4062
Q13.1875 40.5781 17.3125 36.2969
Q21.4375 32.0312 27.4844 32.0312
Q33.5938 32.0312 37.5156 36.2969
Q41.4531 40.5781 41.4531 48.1406" id="ArialMT-39"/>
     <path d="
M3.17188 21.4844
L3.17188 30.3281
L30.1719 30.3281
L30.1719 21.4844
z
" id="ArialMT-2d"/>
    </defs>
    <g style="fill:#ff0000;" transform="translate(113.320240567 206.712)scale(0.1 -0.1)">
     <use xlink:href="#ArialMT-2d"/>
     <use x="33.30078125" xlink:href="#ArialMT-30"/>
     <use x="88.916015625" xlink:href="#ArialMT-2e"/>
     <use x="116.69921875" xlink:href="#ArialMT-38"/>
     <use x="172.314453125" xlink:href="#ArialMT-39"/>
    </g>
   </g>
   <g id="text_14">
    <!-- $x_{1}^*$ -->
    <defs>
     <path d="
M7.8125 2.875
Q9.57812 1.51562 12.7969 1.51562
Q15.9219 1.51562 18.3125 4.51562
Q20.7031 7.51562 21.5781 11.0781
L26.125 28.8125
Q27.2031 33.6406 27.2031 35.4062
Q27.2031 37.8906 25.8125 39.75
Q24.4219 41.6094 21.9219 41.6094
Q18.75 41.6094 15.9688 39.625
Q13.1875 37.6406 11.2812 34.5938
Q9.375 31.5469 8.59375 28.4219
Q8.40625 27.7812 7.8125 27.7812
L6.59375 27.7812
Q5.8125 27.7812 5.8125 28.7188
L5.8125 29
Q6.78125 32.7188 9.125 36.25
Q11.4688 39.7969 14.8594 41.9844
Q18.2656 44.1875 22.125 44.1875
Q25.7812 44.1875 28.7344 42.2344
Q31.6875 40.2812 32.9062 36.9219
Q34.625 39.9844 37.2812 42.0781
Q39.9375 44.1875 43.1094 44.1875
Q45.2656 44.1875 47.5 43.4219
Q49.75 42.6719 51.1719 41.1094
Q52.5938 39.5469 52.5938 37.2031
Q52.5938 34.6719 50.9531 32.8281
Q49.3125 31 46.7812 31
Q45.1719 31 44.0938 32.0312
Q43.0156 33.0625 43.0156 34.625
Q43.0156 36.7188 44.4531 38.2969
Q45.9062 39.8906 47.9062 40.1875
Q46.0938 41.6094 42.9219 41.6094
Q39.7031 41.6094 37.3281 38.625
Q34.9688 35.6406 33.9844 31.9844
L29.5938 14.3125
Q28.5156 10.2969 28.5156 7.71875
Q28.5156 5.17188 29.9531 3.34375
Q31.3906 1.51562 33.7969 1.51562
Q38.4844 1.51562 42.1562 5.64062
Q45.8438 9.76562 47.0156 14.7031
Q47.2188 15.2812 47.7969 15.2812
L49.0312 15.2812
Q49.4219 15.2812 49.6562 15.0156
Q49.9062 14.75 49.9062 14.4062
Q49.9062 14.3125 49.8125 14.1094
Q48.3906 8.15625 43.8438 3.51562
Q39.3125 -1.125 33.5938 -1.125
Q29.9375 -1.125 26.9844 0.84375
Q24.0312 2.82812 22.7969 6.20312
Q21.2344 3.26562 18.4688 1.0625
Q15.7188 -1.125 12.5938 -1.125
Q10.4531 -1.125 8.17188 -0.359375
Q5.90625 0.390625 4.48438 1.95312
Q3.07812 3.51562 3.07812 5.90625
Q3.07812 8.25 4.70312 10.1719
Q6.34375 12.1094 8.79688 12.1094
Q10.4531 12.1094 11.5781 11.1094
Q12.7031 10.1094 12.7031 8.5
Q12.7031 6.39062 11.2969 4.82812
Q9.90625 3.26562 7.8125 2.875" id="Cmmi10-78"/>
     <path d="
M9.28125 0
L9.28125 3.51562
Q21.7812 3.51562 21.7812 6.6875
L21.7812 59.1875
Q16.6094 56.6875 8.6875 56.6875
L8.6875 60.2031
Q20.9531 60.2031 27.2031 66.6094
L28.6094 66.6094
Q28.9531 66.6094 29.2656 66.3281
Q29.5938 66.0625 29.5938 65.7188
L29.5938 6.6875
Q29.5938 3.51562 42.0938 3.51562
L42.0938 0
z
" id="Cmr10-31"/>
     <path d="
M9.42188 12.7031
Q8.29688 12.7031 7.39062 13.6406
Q6.5 14.5938 6.5 15.7188
Q6.5 17.4375 7.90625 18.1094
L22.3125 25
L7.90625 31.7812
Q6.5 32.375 6.5 34.1875
Q6.5 35.2969 7.39062 36.25
Q8.29688 37.2031 9.42188 37.2031
Q10.1562 37.2031 10.7969 36.7188
L23.5781 27.3906
L22.125 43.7031
Q22.125 44.9219 22.9531 45.7031
Q23.7812 46.4844 25 46.4844
Q26.1719 46.4844 26.9688 45.75
Q27.7812 45.0156 27.7812 43.8906
L27.7812 43.7031
L26.3125 27.3906
L39.1094 36.7188
Q39.75 37.2031 40.4844 37.2031
Q41.7031 37.2031 42.5469 36.25
Q43.4062 35.2969 43.4062 34.1875
Q43.4062 32.375 42 31.7812
L27.5938 25
L42 18.1094
Q43.4062 17.4375 43.4062 15.7188
Q43.4062 14.5938 42.5469 13.6406
Q41.7031 12.7031 40.4844 12.7031
Q39.75 12.7031 39.1094 13.1875
L26.3125 22.5156
L27.7812 6.29688
L27.7812 6
Q27.7812 4.89062 26.9219 4.15625
Q26.0781 3.42188 25 3.42188
Q23.8281 3.42188 22.9688 4.21875
Q22.125 5.03125 22.125 6.20312
L23.5781 22.5156
L10.7969 13.1875
Q10.1562 12.7031 9.42188 12.7031" id="Cmsy10-a4"/>
    </defs>
    <g style="fill:#ff0000;" transform="translate(117.487428067 216.756)scale(0.1 -0.1)">
     <use transform="translate(0.0 0.9453125)" xlink:href="#Cmmi10-78"/>
     <use transform="translate(81.61559375 43.4609375)scale(0.7)" xlink:href="#Cmsy10-a4"/>
     <use transform="translate(57.080078125 -24.5640625)scale(0.7)" xlink:href="#Cmr10-31"/>
    </g>
   </g>
   <g id="text_15">
    <!-- -0.57 -->
    <defs>
     <path d="
M4.73438 62.2031
L4.73438 70.6562
L51.0781 70.6562
L51.0781 63.8125
Q44.2344 56.5469 37.5156 44.4844
Q30.8125 32.4219 27.1562 19.6719
Q24.5156 10.6875 23.7812 0
L14.75 0
Q14.8906 8.45312 18.0625 20.4062
Q21.2344 32.375 27.1719 43.4844
Q33.1094 54.5938 39.7969 62.2031
z
" id="ArialMT-37"/>
    </defs>
    <g style="fill:#ff0000;" transform="translate(162.959018458 206.712)scale(0.1 -0.1)">
     <use xlink:href="#ArialMT-2d"/>
     <use x="33.30078125" xlink:href="#ArialMT-30"/>
     <use x="88.916015625" xlink:href="#ArialMT-2e"/>
     <use x="116.69921875" xlink:href="#ArialMT-35"/>
     <use x="172.314453125" xlink:href="#ArialMT-37"/>
    </g>
   </g>
   <g id="text_16">
    <!-- $x_{2}^*$ -->
    <defs>
     <path d="
M4.98438 0
L4.98438 2.6875
Q4.98438 2.9375 5.17188 3.21875
L20.7031 20.4062
Q24.2188 24.2188 26.4062 26.7969
Q28.6094 29.3906 30.75 32.7656
Q32.9062 36.1406 34.1562 39.625
Q35.4062 43.1094 35.4062 47.0156
Q35.4062 51.125 33.8906 54.8594
Q32.375 58.5938 29.375 60.8438
Q26.375 63.0938 22.125 63.0938
Q17.7812 63.0938 14.3125 60.4688
Q10.8438 57.8594 9.42188 53.7188
Q9.8125 53.8125 10.5 53.8125
Q12.75 53.8125 14.3281 52.2969
Q15.9219 50.7812 15.9219 48.3906
Q15.9219 46.0938 14.3281 44.5
Q12.75 42.9219 10.5 42.9219
Q8.15625 42.9219 6.5625 44.5469
Q4.98438 46.1875 4.98438 48.3906
Q4.98438 52.1562 6.39062 55.4375
Q7.8125 58.7344 10.4688 61.2969
Q13.1406 63.875 16.4844 65.2344
Q19.8281 66.6094 23.5781 66.6094
Q29.2969 66.6094 34.2188 64.1875
Q39.1562 61.7656 42.0312 57.3438
Q44.9219 52.9375 44.9219 47.0156
Q44.9219 42.6719 43.0156 38.7656
Q41.1094 34.8594 38.125 31.6562
Q35.1562 28.4688 30.5156 24.4062
Q25.875 20.3594 24.4219 19
L13.0938 8.10938
L22.7031 8.10938
Q29.7812 8.10938 34.5469 8.21875
Q39.3125 8.34375 39.5938 8.59375
Q40.7656 9.85938 42 17.8281
L44.9219 17.8281
L42.0938 0
z
" id="Cmr10-32"/>
    </defs>
    <g style="fill:#ff0000;" transform="translate(167.119174708 216.756)scale(0.1 -0.1)">
     <use transform="translate(0.0 0.9453125)" xlink:href="#Cmmi10-78"/>
     <use transform="translate(81.61559375 43.4609375)scale(0.7)" xlink:href="#Cmsy10-a4"/>
     <use transform="translate(57.080078125 -24.5640625)scale(0.7)" xlink:href="#Cmr10-32"/>
    </g>
   </g>
   <g id="text_17">
    <!-- -0.33 -->
    <defs>
     <path d="
M4.20312 18.8906
L12.9844 20.0625
Q14.5 12.5938 18.1406 9.29688
Q21.7812 6 27 6
Q33.2031 6 37.4688 10.2969
Q41.75 14.5938 41.75 20.9531
Q41.75 27 37.7969 30.9219
Q33.8438 34.8594 27.7344 34.8594
Q25.25 34.8594 21.5312 33.8906
L22.5156 41.6094
Q23.3906 41.5 23.9219 41.5
Q29.5469 41.5 34.0312 44.4219
Q38.5312 47.3594 38.5312 53.4688
Q38.5312 58.2969 35.25 61.4688
Q31.9844 64.6562 26.8125 64.6562
Q21.6875 64.6562 18.2656 61.4219
Q14.8438 58.2031 13.875 51.7656
L5.07812 53.3281
Q6.6875 62.1562 12.3906 67.0156
Q18.1094 71.875 26.6094 71.875
Q32.4688 71.875 37.3906 69.3594
Q42.3281 66.8438 44.9375 62.5
Q47.5625 58.1562 47.5625 53.2656
Q47.5625 48.6406 45.0625 44.8281
Q42.5781 41.0156 37.7031 38.7656
Q44.0469 37.3125 47.5625 32.6875
Q51.0781 28.0781 51.0781 21.1406
Q51.0781 11.7656 44.2344 5.25
Q37.4062 -1.26562 26.9531 -1.26562
Q17.5312 -1.26562 11.2969 4.34375
Q5.07812 9.96875 4.20312 18.8906" id="ArialMT-33"/>
    </defs>
    <g style="fill:#ff0000;" transform="translate(199.286026622 206.712)scale(0.1 -0.1)">
     <use xlink:href="#ArialMT-2d"/>
     <use x="33.30078125" xlink:href="#ArialMT-30"/>
     <use x="88.916015625" xlink:href="#ArialMT-2e"/>
     <use x="116.69921875" xlink:href="#ArialMT-33"/>
     <use x="172.314453125" xlink:href="#ArialMT-33"/>
    </g>
   </g>
   <g id="text_18">
    <!-- $x_{3}^*$ -->
    <defs>
     <path d="
M9.51562 7.71875
Q11.8594 4.29688 15.8125 2.64062
Q19.7812 0.984375 24.3125 0.984375
Q30.125 0.984375 32.5625 5.9375
Q35.0156 10.8906 35.0156 17.1875
Q35.0156 20.0156 34.5 22.8438
Q33.9844 25.6875 32.7656 28.125
Q31.5469 30.5625 29.4219 32.0312
Q27.2969 33.5 24.2188 33.5
L17.5781 33.5
Q16.7031 33.5 16.7031 34.4219
L16.7031 35.2969
Q16.7031 36.0781 17.5781 36.0781
L23.0938 36.5312
Q26.6094 36.5312 28.9219 39.1562
Q31.25 41.7969 32.3281 45.5781
Q33.4062 49.3594 33.4062 52.7812
Q33.4062 57.5625 31.1562 60.6406
Q28.9062 63.7188 24.3125 63.7188
Q20.5156 63.7188 17.0469 62.2812
Q13.5781 60.8438 11.5312 57.9062
Q11.7188 57.9531 11.8594 57.9844
Q12.0156 58.0156 12.2031 58.0156
Q14.4531 58.0156 15.9688 56.4531
Q17.4844 54.8906 17.4844 52.6875
Q17.4844 50.5312 15.9688 48.9688
Q14.4531 47.4062 12.2031 47.4062
Q10.0156 47.4062 8.45312 48.9688
Q6.89062 50.5312 6.89062 52.6875
Q6.89062 56.9844 9.46875 60.1562
Q12.0625 63.3281 16.1406 64.9688
Q20.2188 66.6094 24.3125 66.6094
Q27.3438 66.6094 30.7031 65.7031
Q34.0781 64.7969 36.8125 63.1094
Q39.5469 61.4219 41.2812 58.7812
Q43.0156 56.1562 43.0156 52.7812
Q43.0156 48.5781 41.1406 45.0156
Q39.2656 41.4531 35.9844 38.8594
Q32.7188 36.2812 28.8125 35.0156
Q33.1562 34.1875 37.0625 31.7344
Q40.9688 29.2969 43.3281 25.4844
Q45.7031 21.6875 45.7031 17.2812
Q45.7031 11.7656 42.6719 7.29688
Q39.6562 2.82812 34.7188 0.3125
Q29.7812 -2.20312 24.3125 -2.20312
Q19.625 -2.20312 14.9062 -0.40625
Q10.2031 1.375 7.20312 4.9375
Q4.20312 8.5 4.20312 13.4844
Q4.20312 15.9688 5.85938 17.625
Q7.51562 19.2812 10.0156 19.2812
Q11.625 19.2812 12.9688 18.5312
Q14.3125 17.7812 15.0625 16.4062
Q15.8281 15.0469 15.8281 13.4844
Q15.8281 11.0312 14.1094 9.375
Q12.4062 7.71875 10.0156 7.71875
z
" id="Cmr10-33"/>
    </defs>
    <g style="fill:#ff0000;" transform="translate(203.446182872 216.756)scale(0.1 -0.1)">
     <use transform="translate(0.0 0.9453125)" xlink:href="#Cmmi10-78"/>
     <use transform="translate(81.61559375 43.4609375)scale(0.7)" xlink:href="#Cmsy10-a4"/>
     <use transform="translate(57.080078125 -24.5640625)scale(0.7)" xlink:href="#Cmr10-33"/>
    </g>
   </g>
   <g id="text_19">
    <!-- -0.14 -->
    <g style="fill:#ff0000;" transform="translate(227.914430109 206.712)scale(0.1 -0.1)">
     <use xlink:href="#ArialMT-2d"/>
     <use x="33.30078125" xlink:href="#ArialMT-30"/>
     <use x="88.916015625" xlink:href="#ArialMT-2e"/>
     <use x="116.69921875" xlink:href="#ArialMT-31"/>
     <use x="172.314453125" xlink:href="#ArialMT-34"/>
    </g>
   </g>
   <g id="text_20">
    <!-- $x_{4}^*$ -->
    <defs>
     <path d="
M2.78125 16.5
L2.78125 20.0156
L33.6875 66.1094
Q34.0312 66.6094 34.7188 66.6094
L36.1875 66.6094
Q37.3125 66.6094 37.3125 65.4844
L37.3125 20.0156
L47.125 20.0156
L47.125 16.5
L37.3125 16.5
L37.3125 6.6875
Q37.3125 4.64062 40.2344 4.07812
Q43.1719 3.51562 47.0156 3.51562
L47.0156 0
L19.4844 0
L19.4844 3.51562
Q23.3438 3.51562 26.2656 4.07812
Q29.2031 4.64062 29.2031 6.6875
L29.2031 16.5
z

M6.10938 20.0156
L29.7812 20.0156
L29.7812 55.4219
z
" id="Cmr10-34"/>
    </defs>
    <g style="fill:#ff0000;" transform="translate(232.059742609 216.756)scale(0.1 -0.1)">
     <use transform="translate(0.0 0.9453125)" xlink:href="#Cmmi10-78"/>
     <use transform="translate(81.61559375 43.4609375)scale(0.7)" xlink:href="#Cmsy10-a4"/>
     <use transform="translate(57.080078125 -24.5640625)scale(0.7)" xlink:href="#Cmr10-34"/>
    </g>
   </g>
   <g id="text_21">
    <!-- 0.20 -->
    <g style="fill:#ff0000;" transform="translate(281.955039707 206.712)scale(0.1 -0.1)">
     <use xlink:href="#ArialMT-30"/>
     <use x="55.615234375" xlink:href="#ArialMT-2e"/>
     <use x="83.3984375" xlink:href="#ArialMT-32"/>
     <use x="139.013671875" xlink:href="#ArialMT-30"/>
    </g>
   </g>
   <g id="text_22">
    <!-- $x_{5}^*$ -->
    <defs>
     <path d="
M8.6875 11.375
Q9.71875 8.45312 11.8438 6.04688
Q13.9688 3.65625 16.875 2.3125
Q19.7812 0.984375 22.9062 0.984375
Q30.125 0.984375 32.8594 6.59375
Q35.5938 12.2031 35.5938 20.2188
Q35.5938 23.6875 35.4688 26.0469
Q35.3594 28.4219 34.8125 30.6094
Q33.8906 34.125 31.5625 36.7656
Q29.25 39.4062 25.875 39.4062
Q22.5156 39.4062 20.0938 38.375
Q17.6719 37.3594 16.1562 35.9844
Q14.6562 34.625 13.4844 33.1094
Q12.3125 31.5938 12.0156 31.5
L10.8906 31.5
Q10.6406 31.5 10.2656 31.8125
Q9.90625 32.125 9.90625 32.4219
L9.90625 65.8281
Q9.90625 66.0625 10.2188 66.3281
Q10.5469 66.6094 10.8906 66.6094
L11.1875 66.6094
Q17.9219 63.375 25.4844 63.375
Q32.9062 63.375 39.7969 66.6094
L40.0938 66.6094
Q40.4375 66.6094 40.7188 66.3594
Q41.0156 66.1094 41.0156 65.8281
L41.0156 64.8906
Q41.0156 64.4062 40.8281 64.4062
Q37.4062 59.8594 32.25 57.3125
Q27.0938 54.7812 21.5781 54.7812
Q17.5781 54.7812 13.375 55.9062
L13.375 37.0156
Q16.7031 39.7031 19.3125 40.8438
Q21.9219 42 25.9844 42
Q31.5 42 35.8594 38.8125
Q40.2344 35.6406 42.5781 30.5312
Q44.9219 25.4375 44.9219 20.125
Q44.9219 14.1094 41.9688 8.98438
Q39.0156 3.85938 33.9375 0.828125
Q28.8594 -2.20312 22.9062 -2.20312
Q17.9688 -2.20312 13.8438 0.328125
Q9.71875 2.875 7.34375 7.17188
Q4.98438 11.4688 4.98438 16.3125
Q4.98438 18.5625 6.4375 19.9688
Q7.90625 21.3906 10.1094 21.3906
Q12.3125 21.3906 13.7969 19.9375
Q15.2812 18.5 15.2812 16.3125
Q15.2812 14.1562 13.7969 12.6719
Q12.3125 11.1875 10.1094 11.1875
Q9.76562 11.1875 9.32812 11.25
Q8.89062 11.3281 8.6875 11.375" id="Cmr10-35"/>
    </defs>
    <g style="fill:#ff0000;" transform="translate(284.388633457 216.756)scale(0.1 -0.1)">
     <use transform="translate(0.0 0.9453125)" xlink:href="#Cmmi10-78"/>
     <use transform="translate(81.61559375 43.4609375)scale(0.7)" xlink:href="#Cmsy10-a4"/>
     <use transform="translate(57.080078125 -24.5640625)scale(0.7)" xlink:href="#Cmr10-35"/>
    </g>
   </g>
   <g id="text_23">
    <!-- 0.31 -->
    <g style="fill:#ff0000;" transform="translate(298.519219684 206.712)scale(0.1 -0.1)">
     <use xlink:href="#ArialMT-30"/>
     <use x="55.615234375" xlink:href="#ArialMT-2e"/>
     <use x="83.3984375" xlink:href="#ArialMT-33"/>
     <use x="139.013671875" xlink:href="#ArialMT-31"/>
    </g>
   </g>
   <g id="text_24">
    <!-- $x_{6}^*$ -->
    <defs>
     <path d="
M25 -2.20312
Q18.7969 -2.20312 14.6406 1.09375
Q10.5 4.39062 8.21875 9.64062
Q5.95312 14.8906 5.07812 20.6562
Q4.20312 26.4219 4.20312 32.3281
Q4.20312 40.2344 7.28125 48.1875
Q10.3594 56.1562 16.3281 61.375
Q22.3125 66.6094 30.5156 66.6094
Q33.9375 66.6094 36.8906 65.3125
Q39.8438 64.0156 41.5312 61.5
Q43.2188 58.9844 43.2188 55.4219
Q43.2188 53.375 41.8281 51.9844
Q40.4375 50.5938 38.375 50.5938
Q36.4219 50.5938 35 52
Q33.5938 53.4219 33.5938 55.4219
Q33.5938 57.375 35 58.7812
Q36.4219 60.2031 38.375 60.2031
L38.9219 60.2031
Q37.6406 62.0156 35.3281 62.8594
Q33.0156 63.7188 30.5156 63.7188
Q27.4844 63.7188 24.9219 62.3906
Q22.3594 61.0781 20.3125 58.8281
Q18.2656 56.5938 16.8906 53.875
Q15.5312 51.1719 14.7656 47.7031
Q14.0156 44.2344 13.8125 41.2031
Q13.625 38.1875 13.625 33.5938
Q15.375 37.7031 18.5938 40.3125
Q21.8281 42.9219 25.875 42.9219
Q30.3281 42.9219 33.9844 41.1094
Q37.6406 39.3125 40.2812 36.1094
Q42.9219 32.9062 44.3125 28.7969
Q45.7031 24.7031 45.7031 20.5156
Q45.7031 14.6562 43.0938 9.34375
Q40.4844 4.04688 35.7344 0.921875
Q31 -2.20312 25 -2.20312
M25 0.984375
Q28.8594 0.984375 31.2031 2.73438
Q33.5469 4.5 34.6406 7.39062
Q35.75 10.2969 36.0156 13.25
Q36.2812 16.2188 36.2812 20.5156
Q36.2812 26.1719 35.7344 30.1719
Q35.2031 34.1875 32.8125 37.2344
Q30.4219 40.2812 25.4844 40.2812
Q21.4375 40.2812 18.8281 37.5469
Q16.2188 34.8125 15.0156 30.6406
Q13.8125 26.4688 13.8125 22.6094
Q13.8125 21.2969 13.9219 20.6094
Q13.9219 20.4531 13.8906 20.3594
Q13.875 20.2656 13.8125 20.125
Q13.8125 15.8281 14.6875 11.4219
Q15.5781 7.03125 18.0625 4
Q20.5625 0.984375 25 0.984375" id="Cmr10-36"/>
    </defs>
    <g style="fill:#ff0000;" transform="translate(300.273907184 216.756)scale(0.1 -0.1)">
     <use transform="translate(0.0 0.9453125)" xlink:href="#Cmmi10-78"/>
     <use transform="translate(81.61559375 43.4609375)scale(0.7)" xlink:href="#Cmsy10-a4"/>
     <use transform="translate(57.080078125 -24.5640625)scale(0.7)" xlink:href="#Cmr10-36"/>
    </g>
   </g>
   <g id="text_25">
    <!-- 0.64 -->
    <g style="fill:#ff0000;" transform="translate(347.667653185 206.712)scale(0.1 -0.1)">
     <use xlink:href="#ArialMT-30"/>
     <use x="55.615234375" xlink:href="#ArialMT-2e"/>
     <use x="83.3984375" xlink:href="#ArialMT-36"/>
     <use x="139.013671875" xlink:href="#ArialMT-34"/>
    </g>
   </g>
   <g id="text_26">
    <!-- $x_{7}^*$ -->
    <defs>
     <path d="
M17.3906 2.59375
Q17.3906 8.15625 18.3594 13.4688
Q19.3438 18.7969 21.2188 24
Q23.0938 29.2031 25.75 34.2031
Q28.4219 39.2031 31.5938 43.6094
L40.7188 56.2969
L29.2969 56.2969
Q11.5312 56.2969 10.9844 55.8125
Q9.67188 54.2031 8.5 46.5781
L5.60938 46.5781
L8.89062 67.5781
L11.8125 67.5781
L11.8125 67.2812
Q11.8125 65.4844 17.9219 64.9375
Q24.0312 64.4062 29.8906 64.4062
L48.4844 64.4062
L48.4844 61.8125
Q48.4844 61.7188 48.4531 61.6719
Q48.4375 61.625 48.3906 61.5312
L34.625 42.1875
Q29.5469 34.6719 28.2656 25.4844
Q27 16.3125 27 2.59375
Q27 0.640625 25.5781 -0.78125
Q24.1719 -2.20312 22.2188 -2.20312
Q20.2188 -2.20312 18.7969 -0.78125
Q17.3906 0.640625 17.3906 2.59375" id="Cmr10-37"/>
    </defs>
    <g style="fill:#ff0000;" transform="translate(350.098903185 216.756)scale(0.1 -0.1)">
     <use transform="translate(0.0 0.9453125)" xlink:href="#Cmmi10-78"/>
     <use transform="translate(81.61559375 43.4609375)scale(0.7)" xlink:href="#Cmsy10-a4"/>
     <use transform="translate(57.080078125 -24.5640625)scale(0.7)" xlink:href="#Cmr10-37"/>
    </g>
   </g>
   <g id="text_27">
    <!-- 0.82 -->
    <g style="fill:#ff0000;" transform="translate(376.316952292 206.712)scale(0.1 -0.1)">
     <use xlink:href="#ArialMT-30"/>
     <use x="55.615234375" xlink:href="#ArialMT-2e"/>
     <use x="83.3984375" xlink:href="#ArialMT-38"/>
     <use x="139.013671875" xlink:href="#ArialMT-32"/>
    </g>
   </g>
   <g id="text_28">
    <!-- $x_{8}^*$ -->
    <defs>
     <path d="
M4.20312 15.1875
Q4.20312 21.1875 8.15625 25.7969
Q12.1094 30.4219 18.3125 33.5
L14.5938 35.8906
Q11.1875 38.1406 9.03125 41.875
Q6.89062 45.6094 6.89062 49.7031
Q6.89062 54.5 9.40625 58.3438
Q11.9219 62.2031 16.0938 64.4062
Q20.2656 66.6094 25 66.6094
Q29.4375 66.6094 33.5625 64.7969
Q37.7031 62.9844 40.3594 59.6094
Q43.0156 56.25 43.0156 51.6094
Q43.0156 48.25 41.4219 45.3594
Q39.8438 42.4844 37.0781 40.1875
Q34.3281 37.8906 31.2031 36.2812
L36.9219 32.625
Q40.875 30.0312 43.2812 25.8281
Q45.7031 21.625 45.7031 17
Q45.7031 11.5781 42.7969 7.125
Q39.8906 2.6875 35.1094 0.234375
Q30.3281 -2.20312 25 -2.20312
Q19.8281 -2.20312 15.0156 -0.09375
Q10.2031 2 7.20312 5.98438
Q4.20312 9.96875 4.20312 15.1875
M9.625 15.1875
Q9.625 11.2344 11.7969 7.95312
Q13.9688 4.6875 17.5312 2.82812
Q21.0938 0.984375 25 0.984375
Q30.8125 0.984375 35.5469 4.375
Q40.2812 7.76562 40.2812 13.375
Q40.2812 15.2812 39.5156 17.1562
Q38.7656 19.0469 37.4219 20.5781
Q36.0781 22.125 34.4219 23.0938
L21 31.7812
Q17.875 30.125 15.25 27.5781
Q12.6406 25.0469 11.125 21.875
Q9.625 18.7031 9.625 15.1875
M16.5 45.7031
L28.6094 37.8906
Q32.8125 40.3281 35.5 43.7969
Q38.1875 47.2656 38.1875 51.6094
Q38.1875 54.9844 36.2969 57.7812
Q34.4219 60.5938 31.3906 62.1562
Q28.375 63.7188 24.9062 63.7188
Q21.875 63.7188 18.7969 62.5469
Q15.7188 61.375 13.7188 59.0469
Q11.7188 56.7344 11.7188 53.6094
Q11.7188 48.9219 16.5 45.7031" id="Cmr10-38"/>
    </defs>
    <g style="fill:#ff0000;" transform="translate(378.726327292 216.756)scale(0.1 -0.1)">
     <use transform="translate(0.0 0.9453125)" xlink:href="#Cmmi10-78"/>
     <use transform="translate(81.61559375 43.4609375)scale(0.7)" xlink:href="#Cmsy10-a4"/>
     <use transform="translate(57.080078125 -24.5640625)scale(0.7)" xlink:href="#Cmr10-38"/>
    </g>
   </g>
   <g id="text_29">
    <!-- random choice of $x_i^*$ -->
    <defs>
     <path d="
M40.4375 19
L49.0781 17.875
Q47.6562 8.9375 41.8125 3.875
Q35.9844 -1.17188 27.4844 -1.17188
Q16.8438 -1.17188 10.375 5.78125
Q3.90625 12.75 3.90625 25.7344
Q3.90625 34.125 6.6875 40.4219
Q9.46875 46.7344 15.1562 49.875
Q20.8438 53.0312 27.5469 53.0312
Q35.9844 53.0312 41.3594 48.75
Q46.7344 44.4844 48.25 36.625
L39.7031 35.2969
Q38.4844 40.5312 35.375 43.1562
Q32.2812 45.7969 27.875 45.7969
Q21.2344 45.7969 17.0781 41.0312
Q12.9375 36.2812 12.9375 25.9844
Q12.9375 15.5312 16.9375 10.7969
Q20.9531 6.0625 27.3906 6.0625
Q32.5625 6.0625 36.0312 9.23438
Q39.5 12.4062 40.4375 19" id="ArialMT-63"/>
     <path d="
M40.4375 6.39062
Q35.5469 2.25 31.0312 0.53125
Q26.5156 -1.17188 21.3438 -1.17188
Q12.7969 -1.17188 8.20312 3
Q3.60938 7.17188 3.60938 13.6719
Q3.60938 17.4844 5.34375 20.625
Q7.07812 23.7812 9.89062 25.6875
Q12.7031 27.5938 16.2188 28.5625
Q18.7969 29.25 24.0312 29.8906
Q34.6719 31.1562 39.7031 32.9062
Q39.75 34.7188 39.75 35.2031
Q39.75 40.5781 37.25 42.7812
Q33.8906 45.75 27.25 45.75
Q21.0469 45.75 18.0938 43.5781
Q15.1406 41.4062 13.7188 35.8906
L5.125 37.0625
Q6.29688 42.5781 8.98438 45.9688
Q11.6719 49.3594 16.75 51.1875
Q21.8281 53.0312 28.5156 53.0312
Q35.1562 53.0312 39.2969 51.4688
Q43.4531 49.9062 45.4062 47.5312
Q47.3594 45.1719 48.1406 41.5469
Q48.5781 39.3125 48.5781 33.4531
L48.5781 21.7344
Q48.5781 9.46875 49.1406 6.21875
Q49.7031 2.98438 51.375 0
L42.1875 0
Q40.8281 2.73438 40.4375 6.39062
M39.7031 26.0312
Q34.9062 24.0781 25.3438 22.7031
Q19.9219 21.9219 17.6719 20.9375
Q15.4375 19.9688 14.2031 18.0938
Q12.9844 16.2188 12.9844 13.9219
Q12.9844 10.4062 15.6406 8.0625
Q18.3125 5.71875 23.4375 5.71875
Q28.5156 5.71875 32.4688 7.9375
Q36.4219 10.1562 38.2812 14.0156
Q39.7031 17 39.7031 22.7969
z
" id="ArialMT-61"/>
     <path d="
M8.6875 0
L8.6875 45.0156
L0.921875 45.0156
L0.921875 51.8594
L8.6875 51.8594
L8.6875 57.375
Q8.6875 62.5938 9.625 65.1406
Q10.8906 68.5625 14.0781 70.6719
Q17.2812 72.7969 23.0469 72.7969
Q26.7656 72.7969 31.25 71.9219
L29.9375 64.2656
Q27.2031 64.75 24.75 64.75
Q20.75 64.75 19.0938 63.0312
Q17.4375 61.3281 17.4375 56.6406
L17.4375 51.8594
L27.5469 51.8594
L27.5469 45.0156
L17.4375 45.0156
L17.4375 0
z
" id="ArialMT-66"/>
     <path d="
M42.0938 16.7031
L51.1719 15.5781
Q49.0312 7.625 43.2188 3.21875
Q37.4062 -1.17188 28.375 -1.17188
Q17 -1.17188 10.3281 5.82812
Q3.65625 12.8438 3.65625 25.4844
Q3.65625 38.5781 10.3906 45.7969
Q17.1406 53.0312 27.875 53.0312
Q38.2812 53.0312 44.875 45.9531
Q51.4688 38.875 51.4688 26.0312
Q51.4688 25.25 51.4219 23.6875
L12.75 23.6875
Q13.2344 15.1406 17.5781 10.5938
Q21.9219 6.0625 28.4219 6.0625
Q33.25 6.0625 36.6719 8.59375
Q40.0938 11.1406 42.0938 16.7031
M13.2344 30.9062
L42.1875 30.9062
Q41.6094 37.4531 38.875 40.7188
Q34.6719 45.7969 27.9844 45.7969
Q21.9219 45.7969 17.7969 41.75
Q13.6719 37.7031 13.2344 30.9062" id="ArialMT-65"/>
     <path d="
M40.2344 0
L40.2344 6.54688
Q35.2969 -1.17188 25.7344 -1.17188
Q19.5312 -1.17188 14.3281 2.25
Q9.125 5.67188 6.26562 11.7969
Q3.42188 17.9219 3.42188 25.875
Q3.42188 33.6406 6 39.9688
Q8.59375 46.2969 13.7656 49.6562
Q18.9531 53.0312 25.3438 53.0312
Q30.0312 53.0312 33.6875 51.0469
Q37.3594 49.0781 39.6562 45.9062
L39.6562 71.5781
L48.3906 71.5781
L48.3906 0
z

M12.4531 25.875
Q12.4531 15.9219 16.6406 10.9844
Q20.8438 6.0625 26.5625 6.0625
Q32.3281 6.0625 36.3438 10.7656
Q40.375 15.4844 40.375 25.1406
Q40.375 35.7969 36.2656 40.7656
Q32.1719 45.75 26.1719 45.75
Q20.3125 45.75 16.375 40.9688
Q12.4531 36.1875 12.4531 25.875" id="ArialMT-64"/>
     <path d="
M6.64062 61.4688
L6.64062 71.5781
L15.4375 71.5781
L15.4375 61.4688
z

M6.64062 0
L6.64062 51.8594
L15.4375 51.8594
L15.4375 0
z
" id="ArialMT-69"/>
     <path d="
M6.59375 0
L6.59375 71.5781
L15.375 71.5781
L15.375 45.9062
Q21.5312 53.0312 30.9062 53.0312
Q36.6719 53.0312 40.9219 50.75
Q45.1719 48.4844 47 44.4844
Q48.8281 40.4844 48.8281 32.8594
L48.8281 0
L40.0469 0
L40.0469 32.8594
Q40.0469 39.4531 37.1875 42.4531
Q34.3281 45.4531 29.1094 45.4531
Q25.2031 45.4531 21.75 43.4219
Q18.3125 41.4062 16.8438 37.9375
Q15.375 34.4688 15.375 28.375
L15.375 0
z
" id="ArialMT-68"/>
     <path d="
M6.5 0
L6.5 51.8594
L14.4062 51.8594
L14.4062 44
Q17.4375 49.5156 20 51.2656
Q22.5625 53.0312 25.6406 53.0312
Q30.0781 53.0312 34.6719 50.2031
L31.6406 42.0469
Q28.4219 43.9531 25.2031 43.9531
Q22.3125 43.9531 20.0156 42.2188
Q17.7188 40.4844 16.75 37.4062
Q15.2812 32.7188 15.2812 27.1562
L15.2812 0
z
" id="ArialMT-72"/>
     <path d="
M3.32812 25.9219
Q3.32812 40.3281 11.3281 47.2656
Q18.0156 53.0312 27.6406 53.0312
Q38.3281 53.0312 45.1094 46.0156
Q51.9062 39.0156 51.9062 26.6562
Q51.9062 16.6562 48.9062 10.9062
Q45.9062 5.17188 40.1562 2
Q34.4219 -1.17188 27.6406 -1.17188
Q16.75 -1.17188 10.0312 5.8125
Q3.32812 12.7969 3.32812 25.9219
M12.3594 25.9219
Q12.3594 15.9688 16.7031 11.0156
Q21.0469 6.0625 27.6406 6.0625
Q34.1875 6.0625 38.5312 11.0312
Q42.875 16.0156 42.875 26.2188
Q42.875 35.8438 38.5 40.7969
Q34.125 45.75 27.6406 45.75
Q21.0469 45.75 16.7031 40.8125
Q12.3594 35.8906 12.3594 25.9219" id="ArialMT-6f"/>
     <path d="
M6.59375 0
L6.59375 51.8594
L14.5 51.8594
L14.5 44.4844
Q20.2188 53.0312 31 53.0312
Q35.6875 53.0312 39.625 51.3438
Q43.5625 49.6562 45.5156 46.9219
Q47.4688 44.1875 48.25 40.4375
Q48.7344 37.9844 48.7344 31.8906
L48.7344 0
L39.9375 0
L39.9375 31.5469
Q39.9375 36.9219 38.9062 39.5781
Q37.8906 42.2344 35.2812 43.8125
Q32.6719 45.4062 29.1562 45.4062
Q23.5312 45.4062 19.4531 41.8438
Q15.375 38.2812 15.375 28.3281
L15.375 0
z
" id="ArialMT-6e"/>
     <path d="
M6.59375 0
L6.59375 51.8594
L14.4531 51.8594
L14.4531 44.5781
Q16.8906 48.3906 20.9375 50.7031
Q25 53.0312 30.1719 53.0312
Q35.9375 53.0312 39.625 50.6406
Q43.3125 48.25 44.8281 43.9531
Q50.9844 53.0312 60.8438 53.0312
Q68.5625 53.0312 72.7031 48.75
Q76.8594 44.4844 76.8594 35.5938
L76.8594 0
L68.1094 0
L68.1094 32.6719
Q68.1094 37.9375 67.25 40.25
Q66.4062 42.5781 64.1562 43.9844
Q61.9219 45.4062 58.8906 45.4062
Q53.4219 45.4062 49.7969 41.7656
Q46.1875 38.1406 46.1875 30.125
L46.1875 0
L37.4062 0
L37.4062 33.6875
Q37.4062 39.5469 35.25 42.4688
Q33.1094 45.4062 28.2188 45.4062
Q24.5156 45.4062 21.3594 43.4531
Q18.2188 41.5 16.7969 37.7344
Q15.375 33.9844 15.375 26.9062
L15.375 0
z
" id="ArialMT-6d"/>
     <path d="
M7.8125 7.17188
Q7.8125 9.03125 8.59375 11.0781
L16.7031 32.625
Q18.0156 36.2812 18.0156 38.625
Q18.0156 41.6094 15.8281 41.6094
Q11.8594 41.6094 9.29688 37.5312
Q6.73438 33.4531 5.51562 28.4219
Q5.32812 27.7812 4.6875 27.7812
L3.51562 27.7812
Q2.6875 27.7812 2.6875 28.7188
L2.6875 29
Q4.29688 34.9688 7.60938 39.5781
Q10.9375 44.1875 16.0156 44.1875
Q19.5781 44.1875 22.0469 41.8438
Q24.5156 39.5 24.5156 35.8906
Q24.5156 34.0312 23.6875 31.9844
L15.5781 10.5
Q14.2031 7.17188 14.2031 4.5
Q14.2031 1.51562 16.5 1.51562
Q20.4062 1.51562 23.0156 5.6875
Q25.6406 9.85938 26.7031 14.7031
Q26.9062 15.2812 27.4844 15.2812
L28.7188 15.2812
Q29.1094 15.2812 29.3438 15.0156
Q29.5938 14.75 29.5938 14.4062
Q29.5938 14.3125 29.5 14.1094
Q28.125 8.45312 24.7344 3.65625
Q21.3438 -1.125 16.3125 -1.125
Q12.7969 -1.125 10.2969 1.29688
Q7.8125 3.71875 7.8125 7.17188
M19.0938 60.5938
Q19.0938 62.7031 20.8438 64.4062
Q22.6094 66.1094 24.7031 66.1094
Q26.4219 66.1094 27.5156 65.0625
Q28.6094 64.0156 28.6094 62.4062
Q28.6094 60.1562 26.8281 58.4688
Q25.0469 56.7812 22.9062 56.7812
Q21.2969 56.7812 20.1875 57.875
Q19.0938 58.9844 19.0938 60.5938" id="Cmmi10-69"/>
     <path id="ArialMT-20"/>
    </defs>
    <g transform="translate(213.581818182 20.92)scale(0.1 -0.1)">
     <use transform="translate(0.0 0.9453125)" xlink:href="#ArialMT-72"/>
     <use transform="translate(33.30078125 0.9453125)" xlink:href="#ArialMT-61"/>
     <use transform="translate(88.916015625 0.9453125)" xlink:href="#ArialMT-6e"/>
     <use transform="translate(144.53125 0.9453125)" xlink:href="#ArialMT-64"/>
     <use transform="translate(200.146484375 0.9453125)" xlink:href="#ArialMT-6f"/>
     <use transform="translate(255.76171875 0.9453125)" xlink:href="#ArialMT-6d"/>
     <use transform="translate(339.0625 0.9453125)" xlink:href="#ArialMT-20"/>
     <use transform="translate(366.845703125 0.9453125)" xlink:href="#ArialMT-63"/>
     <use transform="translate(416.845703125 0.9453125)" xlink:href="#ArialMT-68"/>
     <use transform="translate(472.4609375 0.9453125)" xlink:href="#ArialMT-6f"/>
     <use transform="translate(528.076171875 0.9453125)" xlink:href="#ArialMT-69"/>
     <use transform="translate(550.29296875 0.9453125)" xlink:href="#ArialMT-63"/>
     <use transform="translate(600.29296875 0.9453125)" xlink:href="#ArialMT-65"/>
     <use transform="translate(655.908203125 0.9453125)" xlink:href="#ArialMT-20"/>
     <use transform="translate(683.69140625 0.9453125)" xlink:href="#ArialMT-6f"/>
     <use transform="translate(739.306640625 0.9453125)" xlink:href="#ArialMT-66"/>
     <use transform="translate(767.08984375 0.9453125)" xlink:href="#ArialMT-20"/>
     <use transform="translate(794.873046875 0.9453125)" xlink:href="#Cmmi10-78"/>
     <use transform="translate(876.488640625 43.4609375)scale(0.7)" xlink:href="#Cmsy10-a4"/>
     <use transform="translate(851.953125 -24.5640625)scale(0.7)" xlink:href="#Cmmi10-69"/>
    </g>
   </g>
  </g>
  <g id="axes_2">
   <g id="patch_15">
    <path d="
M473.236 226.8
L777.6 226.8
L777.6 25.92
L473.236 25.92
z
" style="fill:#ffffff;"/>
   </g>
   <g id="patch_16">
    <path clip-path="url(#p1bcc424441)" d="
M473.236 193.32
L511.282 193.32
L511.282 112.278
L473.236 112.278
z
" style="fill:#d0d0d0;stroke:#000000;"/>
   </g>
   <g id="patch_17">
    <path clip-path="url(#p1bcc424441)" d="
M511.282 193.32
L549.327 193.32
L549.327 62.6434
L511.282 62.6434
z
" style="fill:#d0d0d0;stroke:#000000;"/>
   </g>
   <g id="patch_18">
    <path clip-path="url(#p1bcc424441)" d="
M549.327 193.32
L587.373 193.32
L587.373 38.136
L549.327 38.136
z
" style="fill:#d0d0d0;stroke:#000000;"/>
   </g>
   <g id="patch_19">
    <path clip-path="url(#p1bcc424441)" d="
M587.373 193.32
L625.418 193.32
L625.418 27.233
L587.373 27.233
z
" style="fill:#d0d0d0;stroke:#000000;"/>
   </g>
   <g id="patch_20">
    <path clip-path="url(#p1bcc424441)" d="
M625.418 193.32
L663.464 193.32
L663.464 27.233
L625.418 27.233
z
" style="fill:#d0d0d0;stroke:#000000;"/>
   </g>
   <g id="patch_21">
    <path clip-path="url(#p1bcc424441)" d="
M663.464 193.32
L701.509 193.32
L701.509 38.136
L663.464 38.136
z
" style="fill:#d0d0d0;stroke:#000000;"/>
   </g>
   <g id="patch_22">
    <path clip-path="url(#p1bcc424441)" d="
M701.509 193.32
L739.555 193.32
L739.555 62.6434
L701.509 62.6434
z
" style="fill:#d0d0d0;stroke:#000000;"/>
   </g>
   <g id="patch_23">
    <path clip-path="url(#p1bcc424441)" d="
M739.555 193.32
L777.6 193.32
L777.6 112.278
L739.555 112.278
z
" style="fill:#d0d0d0;stroke:#000000;"/>
   </g>
   <g id="line2d_34">
    <path clip-path="url(#p1bcc424441)" d="
M473.236 193.32
L474.505 171.754
L475.773 162.885
L477.041 156.123
L478.309 150.459
L479.577 145.502
L482.114 136.982
L484.65 129.714
L487.186 123.305
L489.723 117.539
L492.259 112.278
L494.795 107.428
L497.332 102.924
L501.136 96.7118
L504.941 91.0464
L508.745 85.8416
L512.55 81.0333
L516.355 76.5726
L520.159 72.4209
L523.964 68.5474
L527.768 64.9269
L532.841 60.4577
L537.914 56.3611
L542.986 52.6047
L548.059 49.1618
L553.132 46.0104
L558.205 43.1322
L563.277 40.5118
L568.35 38.136
L573.423 35.9939
L578.495 34.076
L583.568 32.3742
L588.641 30.8818
L593.714 29.5931
L598.786 28.5032
L603.859 27.6083
L608.932 26.9052
L614.005 26.3915
L619.077 26.0654
L624.15 25.9258
L629.223 25.9723
L634.295 26.2051
L639.368 26.6248
L644.441 27.233
L649.514 28.0316
L654.586 29.0236
L659.659 30.2123
L664.732 31.6023
L669.805 33.1985
L674.877 35.0075
L679.95 37.0364
L685.023 39.2941
L690.095 41.7906
L695.168 44.5382
L700.241 47.5508
L705.314 50.8455
L710.386 54.4422
L715.459 58.365
L720.532 62.6434
L724.336 66.107
L728.141 69.8093
L731.945 73.7725
L735.75 78.0234
L739.555 82.5953
L743.359 87.5297
L747.164 92.88
L750.968 98.7168
L754.773 105.137
L757.309 109.806
L759.845 114.852
L762.382 120.352
L764.918 126.418
L767.455 133.222
L769.991 141.049
L771.259 145.502
L772.527 150.459
L773.795 156.123
L775.064 162.885
L776.332 171.754
L776.332 171.754" style="fill:none;stroke:#000000;stroke-linecap:square;"/>
   </g>
   <g id="line2d_35">
    <path clip-path="url(#p1bcc424441)" d="
M492.259 198.342
L492.259 112.278" style="fill:none;stroke:#ff0000;stroke-linecap:square;"/>
   </g>
   <g id="line2d_36">
    <path clip-path="url(#p1bcc424441)" d="
M530.305 198.342
L530.305 62.6434" style="fill:none;stroke:#ff0000;stroke-linecap:square;"/>
   </g>
   <g id="line2d_37">
    <path clip-path="url(#p1bcc424441)" d="
M568.35 198.342
L568.35 38.136" style="fill:none;stroke:#ff0000;stroke-linecap:square;"/>
   </g>
   <g id="line2d_38">
    <path clip-path="url(#p1bcc424441)" d="
M606.395 198.342
L606.395 27.233" style="fill:none;stroke:#ff0000;stroke-linecap:square;"/>
   </g>
   <g id="line2d_39">
    <path clip-path="url(#p1bcc424441)" d="
M644.441 198.342
L644.441 27.233" style="fill:none;stroke:#ff0000;stroke-linecap:square;"/>
   </g>
   <g id="line2d_40">
    <path clip-path="url(#p1bcc424441)" d="
M682.486 198.342
L682.486 38.136" style="fill:none;stroke:#ff0000;stroke-linecap:square;"/>
   </g>
   <g id="line2d_41">
    <path clip-path="url(#p1bcc424441)" d="
M720.532 198.342
L720.532 62.6434" style="fill:none;stroke:#ff0000;stroke-linecap:square;"/>
   </g>
   <g id="line2d_42">
    <path clip-path="url(#p1bcc424441)" d="
M758.577 198.342
L758.577 112.278" style="fill:none;stroke:#ff0000;stroke-linecap:square;"/>
   </g>
   <g id="matplotlib.axis_3">
    <g id="xtick_6">
     <g id="line2d_43">
      <g>
       <use style="stroke:#000000;stroke-width:0.5;" x="473.236363636" xlink:href="#m93b0483c22" y="226.8"/>
      </g>
     </g>
     <g id="line2d_44">
      <g>
       <use style="stroke:#000000;stroke-width:0.5;" x="473.236363636" xlink:href="#m741efc42ff" y="25.92"/>
      </g>
     </g>
     <g id="text_30">
      <!-- −1.0 -->
      <g transform="translate(463.883238636 237.9578125)scale(0.1 -0.1)">
       <use xlink:href="#ArialMT-2212"/>
       <use x="58.3984375" xlink:href="#ArialMT-31"/>
       <use x="114.013671875" xlink:href="#ArialMT-2e"/>
       <use x="141.796875" xlink:href="#ArialMT-30"/>
      </g>
     </g>
    </g>
    <g id="xtick_7">
     <g id="line2d_45">
      <g>
       <use style="stroke:#000000;stroke-width:0.5;" x="549.327272727" xlink:href="#m93b0483c22" y="226.8"/>
      </g>
     </g>
     <g id="line2d_46">
      <g>
       <use style="stroke:#000000;stroke-width:0.5;" x="549.327272727" xlink:href="#m741efc42ff" y="25.92"/>
      </g>
     </g>
     <g id="text_31">
      <!-- −0.5 -->
      <g transform="translate(539.935085227 237.9578125)scale(0.1 -0.1)">
       <use xlink:href="#ArialMT-2212"/>
       <use x="58.3984375" xlink:href="#ArialMT-30"/>
       <use x="114.013671875" xlink:href="#ArialMT-2e"/>
       <use x="141.796875" xlink:href="#ArialMT-35"/>
      </g>
     </g>
    </g>
    <g id="xtick_8">
     <g id="line2d_47">
      <g>
       <use style="stroke:#000000;stroke-width:0.5;" x="625.418181818" xlink:href="#m93b0483c22" y="226.8"/>
      </g>
     </g>
     <g id="line2d_48">
      <g>
       <use style="stroke:#000000;stroke-width:0.5;" x="625.418181818" xlink:href="#m741efc42ff" y="25.92"/>
      </g>
     </g>
     <g id="text_32">
      <!-- 0.0 -->
      <g transform="translate(618.915056818 237.9578125)scale(0.1 -0.1)">
       <use xlink:href="#ArialMT-30"/>
       <use x="55.615234375" xlink:href="#ArialMT-2e"/>
       <use x="83.3984375" xlink:href="#ArialMT-30"/>
      </g>
     </g>
    </g>
    <g id="xtick_9">
     <g id="line2d_49">
      <g>
       <use style="stroke:#000000;stroke-width:0.5;" x="701.509090909" xlink:href="#m93b0483c22" y="226.8"/>
      </g>
     </g>
     <g id="line2d_50">
      <g>
       <use style="stroke:#000000;stroke-width:0.5;" x="701.509090909" xlink:href="#m741efc42ff" y="25.92"/>
      </g>
     </g>
     <g id="text_33">
      <!-- 0.5 -->
      <g transform="translate(694.966903409 237.9578125)scale(0.1 -0.1)">
       <use xlink:href="#ArialMT-30"/>
       <use x="55.615234375" xlink:href="#ArialMT-2e"/>
       <use x="83.3984375" xlink:href="#ArialMT-35"/>
      </g>
     </g>
    </g>
    <g id="xtick_10">
     <g id="line2d_51">
      <g>
       <use style="stroke:#000000;stroke-width:0.5;" x="777.6" xlink:href="#m93b0483c22" y="226.8"/>
      </g>
     </g>
     <g id="line2d_52">
      <g>
       <use style="stroke:#000000;stroke-width:0.5;" x="777.6" xlink:href="#m741efc42ff" y="25.92"/>
      </g>
     </g>
     <g id="text_34">
      <!-- 1.0 -->
      <g transform="translate(771.43359375 237.9578125)scale(0.1 -0.1)">
       <use xlink:href="#ArialMT-31"/>
       <use x="55.615234375" xlink:href="#ArialMT-2e"/>
       <use x="83.3984375" xlink:href="#ArialMT-30"/>
      </g>
     </g>
    </g>
   </g>
   <g id="matplotlib.axis_4">
    <g id="ytick_8">
     <g id="line2d_53">
      <g>
       <use style="stroke:#000000;stroke-width:0.5;" x="473.236363636" xlink:href="#m728421d6d4" y="226.8"/>
      </g>
     </g>
     <g id="line2d_54">
      <g>
       <use style="stroke:#000000;stroke-width:0.5;" x="777.6" xlink:href="#mcb0005524f" y="226.8"/>
      </g>
     </g>
    </g>
    <g id="ytick_9">
     <g id="line2d_55">
      <g>
       <use style="stroke:#000000;stroke-width:0.5;" x="473.236363636" xlink:href="#m728421d6d4" y="193.32"/>
      </g>
     </g>
     <g id="line2d_56">
      <g>
       <use style="stroke:#000000;stroke-width:0.5;" x="777.6" xlink:href="#mcb0005524f" y="193.32"/>
      </g>
     </g>
    </g>
    <g id="ytick_10">
     <g id="line2d_57">
      <g>
       <use style="stroke:#000000;stroke-width:0.5;" x="473.236363636" xlink:href="#m728421d6d4" y="159.84"/>
      </g>
     </g>
     <g id="line2d_58">
      <g>
       <use style="stroke:#000000;stroke-width:0.5;" x="777.6" xlink:href="#mcb0005524f" y="159.84"/>
      </g>
     </g>
    </g>
    <g id="ytick_11">
     <g id="line2d_59">
      <g>
       <use style="stroke:#000000;stroke-width:0.5;" x="473.236363636" xlink:href="#m728421d6d4" y="126.36"/>
      </g>
     </g>
     <g id="line2d_60">
      <g>
       <use style="stroke:#000000;stroke-width:0.5;" x="777.6" xlink:href="#mcb0005524f" y="126.36"/>
      </g>
     </g>
    </g>
    <g id="ytick_12">
     <g id="line2d_61">
      <g>
       <use style="stroke:#000000;stroke-width:0.5;" x="473.236363636" xlink:href="#m728421d6d4" y="92.88"/>
      </g>
     </g>
     <g id="line2d_62">
      <g>
       <use style="stroke:#000000;stroke-width:0.5;" x="777.6" xlink:href="#mcb0005524f" y="92.88"/>
      </g>
     </g>
    </g>
    <g id="ytick_13">
     <g id="line2d_63">
      <g>
       <use style="stroke:#000000;stroke-width:0.5;" x="473.236363636" xlink:href="#m728421d6d4" y="59.4"/>
      </g>
     </g>
     <g id="line2d_64">
      <g>
       <use style="stroke:#000000;stroke-width:0.5;" x="777.6" xlink:href="#mcb0005524f" y="59.4"/>
      </g>
     </g>
    </g>
    <g id="ytick_14">
     <g id="line2d_65">
      <g>
       <use style="stroke:#000000;stroke-width:0.5;" x="473.236363636" xlink:href="#m728421d6d4" y="25.92"/>
      </g>
     </g>
     <g id="line2d_66">
      <g>
       <use style="stroke:#000000;stroke-width:0.5;" x="777.6" xlink:href="#mcb0005524f" y="25.92"/>
      </g>
     </g>
    </g>
   </g>
   <g id="patch_24">
    <path d="
M473.236 25.92
L777.6 25.92" style="fill:none;stroke:#000000;"/>
   </g>
   <g id="patch_25">
    <path d="
M777.6 226.8
L777.6 25.92" style="fill:none;stroke:#000000;"/>
   </g>
   <g id="patch_26">
    <path d="
M473.236 226.8
L777.6 226.8" style="fill:none;stroke:#000000;"/>
   </g>
   <g id="patch_27">
    <path d="
M473.236 226.8
L473.236 25.92" style="fill:none;stroke:#000000;"/>
   </g>
   <g id="text_35">
    <!-- -0.88 -->
    <g style="fill:#ff0000;" transform="translate(481.241903409 206.712)scale(0.1 -0.1)">
     <use xlink:href="#ArialMT-2d"/>
     <use x="33.30078125" xlink:href="#ArialMT-30"/>
     <use x="88.916015625" xlink:href="#ArialMT-2e"/>
     <use x="116.69921875" xlink:href="#ArialMT-38"/>
     <use x="172.314453125" xlink:href="#ArialMT-38"/>
    </g>
   </g>
   <g id="text_36">
    <!-- $x_{1}^*$ -->
    <g style="fill:#ff0000;" transform="translate(485.409090909 216.756)scale(0.1 -0.1)">
     <use transform="translate(0.0 0.9453125)" xlink:href="#Cmmi10-78"/>
     <use transform="translate(81.61559375 43.4609375)scale(0.7)" xlink:href="#Cmsy10-a4"/>
     <use transform="translate(57.080078125 -24.5640625)scale(0.7)" xlink:href="#Cmr10-31"/>
    </g>
   </g>
   <g id="text_37">
    <!-- -0.62 -->
    <g style="fill:#ff0000;" transform="translate(519.331107955 206.712)scale(0.1 -0.1)">
     <use xlink:href="#ArialMT-2d"/>
     <use x="33.30078125" xlink:href="#ArialMT-30"/>
     <use x="88.916015625" xlink:href="#ArialMT-2e"/>
     <use x="116.69921875" xlink:href="#ArialMT-36"/>
     <use x="172.314453125" xlink:href="#ArialMT-32"/>
    </g>
   </g>
   <g id="text_38">
    <!-- $x_{2}^*$ -->
    <g style="fill:#ff0000;" transform="translate(523.454545455 216.756)scale(0.1 -0.1)">
     <use transform="translate(0.0 0.9453125)" xlink:href="#Cmmi10-78"/>
     <use transform="translate(81.61559375 43.4609375)scale(0.7)" xlink:href="#Cmsy10-a4"/>
     <use transform="translate(57.080078125 -24.5640625)scale(0.7)" xlink:href="#Cmr10-32"/>
    </g>
   </g>
   <g id="text_39">
    <!-- -0.38 -->
    <g style="fill:#ff0000;" transform="translate(557.3328125 206.712)scale(0.1 -0.1)">
     <use xlink:href="#ArialMT-2d"/>
     <use x="33.30078125" xlink:href="#ArialMT-30"/>
     <use x="88.916015625" xlink:href="#ArialMT-2e"/>
     <use x="116.69921875" xlink:href="#ArialMT-33"/>
     <use x="172.314453125" xlink:href="#ArialMT-38"/>
    </g>
   </g>
   <g id="text_40">
    <!-- $x_{3}^*$ -->
    <g style="fill:#ff0000;" transform="translate(561.5 216.756)scale(0.1 -0.1)">
     <use transform="translate(0.0 0.9453125)" xlink:href="#Cmmi10-78"/>
     <use transform="translate(81.61559375 43.4609375)scale(0.7)" xlink:href="#Cmsy10-a4"/>
     <use transform="translate(57.080078125 -24.5640625)scale(0.7)" xlink:href="#Cmr10-33"/>
    </g>
   </g>
   <g id="text_41">
    <!-- -0.12 -->
    <g style="fill:#ff0000;" transform="translate(595.422017045 206.712)scale(0.1 -0.1)">
     <use xlink:href="#ArialMT-2d"/>
     <use x="33.30078125" xlink:href="#ArialMT-30"/>
     <use x="88.916015625" xlink:href="#ArialMT-2e"/>
     <use x="116.69921875" xlink:href="#ArialMT-31"/>
     <use x="172.314453125" xlink:href="#ArialMT-32"/>
    </g>
   </g>
   <g id="text_42">
    <!-- $x_{4}^*$ -->
    <g style="fill:#ff0000;" transform="translate(599.545454545 216.756)scale(0.1 -0.1)">
     <use transform="translate(0.0 0.9453125)" xlink:href="#Cmmi10-78"/>
     <use transform="translate(81.61559375 43.4609375)scale(0.7)" xlink:href="#Cmsy10-a4"/>
     <use transform="translate(57.080078125 -24.5640625)scale(0.7)" xlink:href="#Cmr10-34"/>
    </g>
   </g>
   <g id="text_43">
    <!-- 0.12 -->
    <g style="fill:#ff0000;" transform="translate(635.181534091 206.712)scale(0.1 -0.1)">
     <use xlink:href="#ArialMT-30"/>
     <use x="55.615234375" xlink:href="#ArialMT-2e"/>
     <use x="83.3984375" xlink:href="#ArialMT-31"/>
     <use x="139.013671875" xlink:href="#ArialMT-32"/>
    </g>
   </g>
   <g id="text_44">
    <!-- $x_{5}^*$ -->
    <g style="fill:#ff0000;" transform="translate(637.590909091 216.756)scale(0.1 -0.1)">
     <use transform="translate(0.0 0.9453125)" xlink:href="#Cmmi10-78"/>
     <use transform="translate(81.61559375 43.4609375)scale(0.7)" xlink:href="#Cmsy10-a4"/>
     <use transform="translate(57.080078125 -24.5640625)scale(0.7)" xlink:href="#Cmr10-35"/>
    </g>
   </g>
   <g id="text_45">
    <!-- 0.38 -->
    <g style="fill:#ff0000;" transform="translate(673.183238636 206.712)scale(0.1 -0.1)">
     <use xlink:href="#ArialMT-30"/>
     <use x="55.615234375" xlink:href="#ArialMT-2e"/>
     <use x="83.3984375" xlink:href="#ArialMT-33"/>
     <use x="139.013671875" xlink:href="#ArialMT-38"/>
    </g>
   </g>
   <g id="text_46">
    <!-- $x_{6}^*$ -->
    <g style="fill:#ff0000;" transform="translate(675.636363636 216.756)scale(0.1 -0.1)">
     <use transform="translate(0.0 0.9453125)" xlink:href="#Cmmi10-78"/>
     <use transform="translate(81.61559375 43.4609375)scale(0.7)" xlink:href="#Cmsy10-a4"/>
     <use transform="translate(57.080078125 -24.5640625)scale(0.7)" xlink:href="#Cmr10-36"/>
    </g>
   </g>
   <g id="text_47">
    <!-- 0.62 -->
    <g style="fill:#ff0000;" transform="translate(711.272443182 206.712)scale(0.1 -0.1)">
     <use xlink:href="#ArialMT-30"/>
     <use x="55.615234375" xlink:href="#ArialMT-2e"/>
     <use x="83.3984375" xlink:href="#ArialMT-36"/>
     <use x="139.013671875" xlink:href="#ArialMT-32"/>
    </g>
   </g>
   <g id="text_48">
    <!-- $x_{7}^*$ -->
    <g style="fill:#ff0000;" transform="translate(713.681818182 216.756)scale(0.1 -0.1)">
     <use transform="translate(0.0 0.9453125)" xlink:href="#Cmmi10-78"/>
     <use transform="translate(81.61559375 43.4609375)scale(0.7)" xlink:href="#Cmsy10-a4"/>
     <use transform="translate(57.080078125 -24.5640625)scale(0.7)" xlink:href="#Cmr10-37"/>
    </g>
   </g>
   <g id="text_49">
    <!-- 0.88 -->
    <g style="fill:#ff0000;" transform="translate(749.274147727 206.712)scale(0.1 -0.1)">
     <use xlink:href="#ArialMT-30"/>
     <use x="55.615234375" xlink:href="#ArialMT-2e"/>
     <use x="83.3984375" xlink:href="#ArialMT-38"/>
     <use x="139.013671875" xlink:href="#ArialMT-38"/>
    </g>
   </g>
   <g id="text_50">
    <!-- $x_{8}^*$ -->
    <g style="fill:#ff0000;" transform="translate(751.727272727 216.756)scale(0.1 -0.1)">
     <use transform="translate(0.0 0.9453125)" xlink:href="#Cmmi10-78"/>
     <use transform="translate(81.61559375 43.4609375)scale(0.7)" xlink:href="#Cmsy10-a4"/>
     <use transform="translate(57.080078125 -24.5640625)scale(0.7)" xlink:href="#Cmr10-38"/>
    </g>
   </g>
   <g id="text_51">
    <!-- midpoint choice of $x_i^*$ -->
    <defs>
     <path d="
M25.7812 7.85938
L27.0469 0.09375
Q23.3438 -0.6875 20.4062 -0.6875
Q15.625 -0.6875 12.9844 0.828125
Q10.3594 2.34375 9.28125 4.8125
Q8.20312 7.28125 8.20312 15.1875
L8.20312 45.0156
L1.76562 45.0156
L1.76562 51.8594
L8.20312 51.8594
L8.20312 64.7031
L16.9375 69.9688
L16.9375 51.8594
L25.7812 51.8594
L25.7812 45.0156
L16.9375 45.0156
L16.9375 14.7031
Q16.9375 10.9375 17.4062 9.85938
Q17.875 8.79688 18.9219 8.15625
Q19.9688 7.51562 21.9219 7.51562
Q23.3906 7.51562 25.7812 7.85938" id="ArialMT-74"/>
     <path d="
M6.59375 -19.875
L6.59375 51.8594
L14.5938 51.8594
L14.5938 45.125
Q17.4375 49.0781 21 51.0469
Q24.5625 53.0312 29.6406 53.0312
Q36.2812 53.0312 41.3594 49.6094
Q46.4375 46.1875 49.0156 39.9531
Q51.6094 33.7344 51.6094 26.3125
Q51.6094 18.3594 48.75 11.9844
Q45.9062 5.60938 40.4531 2.21875
Q35.0156 -1.17188 29 -1.17188
Q24.6094 -1.17188 21.1094 0.6875
Q17.625 2.54688 15.375 5.375
L15.375 -19.875
z

M14.5469 25.6406
Q14.5469 15.625 18.5938 10.8438
Q22.6562 6.0625 28.4219 6.0625
Q34.2812 6.0625 38.4531 11.0156
Q42.625 15.9688 42.625 26.375
Q42.625 36.2812 38.5469 41.2031
Q34.4688 46.1406 28.8125 46.1406
Q23.1875 46.1406 18.8594 40.8906
Q14.5469 35.6406 14.5469 25.6406" id="ArialMT-70"/>
    </defs>
    <g transform="translate(576.868181818 20.92)scale(0.1 -0.1)">
     <use transform="translate(0.0 0.9453125)" xlink:href="#ArialMT-6d"/>
     <use transform="translate(83.30078125 0.9453125)" xlink:href="#ArialMT-69"/>
     <use transform="translate(105.517578125 0.9453125)" xlink:href="#ArialMT-64"/>
     <use transform="translate(161.1328125 0.9453125)" xlink:href="#ArialMT-70"/>
     <use transform="translate(216.748046875 0.9453125)" xlink:href="#ArialMT-6f"/>
     <use transform="translate(272.36328125 0.9453125)" xlink:href="#ArialMT-69"/>
     <use transform="translate(294.580078125 0.9453125)" xlink:href="#ArialMT-6e"/>
     <use transform="translate(350.1953125 0.9453125)" xlink:href="#ArialMT-74"/>
     <use transform="translate(377.978515625 0.9453125)" xlink:href="#ArialMT-20"/>
     <use transform="translate(405.76171875 0.9453125)" xlink:href="#ArialMT-63"/>
     <use transform="translate(455.76171875 0.9453125)" xlink:href="#ArialMT-68"/>
     <use transform="translate(511.376953125 0.9453125)" xlink:href="#ArialMT-6f"/>
     <use transform="translate(566.9921875 0.9453125)" xlink:href="#ArialMT-69"/>
     <use transform="translate(589.208984375 0.9453125)" xlink:href="#ArialMT-63"/>
     <use transform="translate(639.208984375 0.9453125)" xlink:href="#ArialMT-65"/>
     <use transform="translate(694.82421875 0.9453125)" xlink:href="#ArialMT-20"/>
     <use transform="translate(722.607421875 0.9453125)" xlink:href="#ArialMT-6f"/>
     <use transform="translate(778.22265625 0.9453125)" xlink:href="#ArialMT-66"/>
     <use transform="translate(806.005859375 0.9453125)" xlink:href="#ArialMT-20"/>
     <use transform="translate(833.7890625 0.9453125)" xlink:href="#Cmmi10-78"/>
     <use transform="translate(915.40465625 43.4609375)scale(0.7)" xlink:href="#Cmsy10-a4"/>
     <use transform="translate(890.869140625 -24.5640625)scale(0.7)" xlink:href="#Cmmi10-69"/>
    </g>
   </g>
  </g>
  <g id="text_52">
   <!-- Riemann sums for $y=\sqrt{1-x^2}$ -->
   <defs>
    <path d="
M10.2031 23
Q9.375 23 8.82812 23.625
Q8.29688 24.2656 8.29688 25
Q8.29688 25.7344 8.82812 26.3594
Q9.375 27 10.2031 27
L67.5781 27
Q68.3594 27 68.875 26.3594
Q69.3906 25.7344 69.3906 25
Q69.3906 24.2656 68.875 23.625
Q68.3594 23 67.5781 23
z
" id="Cmsy10-a1"/>
    <path d="
M7.85938 0
L7.85938 71.5781
L39.5938 71.5781
Q49.1719 71.5781 54.1406 69.6406
Q59.125 67.7188 62.1094 62.8281
Q65.0938 57.9531 65.0938 52.0469
Q65.0938 44.4375 60.1562 39.2031
Q55.2188 33.9844 44.9219 32.5625
Q48.6875 30.7656 50.6406 29
Q54.7812 25.2031 58.5 19.4844
L70.9531 0
L59.0312 0
L49.5625 14.8906
Q45.4062 21.3438 42.7188 24.75
Q40.0469 28.1719 37.9219 29.5312
Q35.7969 30.9062 33.5938 31.4531
Q31.9844 31.7812 28.3281 31.7812
L17.3281 31.7812
L17.3281 0
z

M17.3281 39.9844
L37.7031 39.9844
Q44.1875 39.9844 47.8438 41.3281
Q51.5156 42.6719 53.4219 45.625
Q55.3281 48.5781 55.3281 52.0469
Q55.3281 57.125 51.6406 60.3906
Q47.9531 63.6719 39.9844 63.6719
L17.3281 63.6719
z
" id="ArialMT-52"/>
    <path d="
M40.5781 0
L40.5781 7.625
Q34.5156 -1.17188 24.125 -1.17188
Q19.5312 -1.17188 15.5469 0.578125
Q11.5781 2.34375 9.64062 5
Q7.71875 7.67188 6.9375 11.5312
Q6.39062 14.1094 6.39062 19.7344
L6.39062 51.8594
L15.1875 51.8594
L15.1875 23.0938
Q15.1875 16.2188 15.7188 13.8125
Q16.5469 10.3594 19.2344 8.375
Q21.9219 6.39062 25.875 6.39062
Q29.8281 6.39062 33.2969 8.42188
Q36.7656 10.4531 38.2031 13.9375
Q39.6562 17.4375 39.6562 24.0781
L39.6562 51.8594
L48.4375 51.8594
L48.4375 0
z
" id="ArialMT-75"/>
    <path d="
M3.07812 15.4844
L11.7656 16.8438
Q12.5 11.625 15.8438 8.84375
Q19.1875 6.0625 25.2031 6.0625
Q31.25 6.0625 34.1719 8.51562
Q37.1094 10.9844 37.1094 14.3125
Q37.1094 17.2812 34.5156 19
Q32.7188 20.1719 25.5312 21.9688
Q15.875 24.4219 12.1406 26.2031
Q8.40625 27.9844 6.46875 31.125
Q4.54688 34.2812 4.54688 38.0938
Q4.54688 41.5469 6.125 44.5
Q7.71875 47.4688 10.4531 49.4219
Q12.5 50.9219 16.0312 51.9688
Q19.5781 53.0312 23.6406 53.0312
Q29.7344 53.0312 34.3438 51.2656
Q38.9688 49.5156 41.1562 46.5
Q43.3594 43.5 44.1875 38.4844
L35.5938 37.3125
Q35.0156 41.3125 32.2031 43.5469
Q29.3906 45.7969 24.2656 45.7969
Q18.2188 45.7969 15.625 43.7969
Q13.0312 41.7969 13.0312 39.1094
Q13.0312 37.4062 14.1094 36.0312
Q15.1875 34.625 17.4844 33.6875
Q18.7969 33.2031 25.25 31.4531
Q34.5781 28.9531 38.25 27.3594
Q41.9375 25.7812 44.0312 22.75
Q46.1406 19.7344 46.1406 15.2344
Q46.1406 10.8438 43.5781 6.95312
Q41.0156 3.07812 36.1719 0.953125
Q31.3438 -1.17188 25.25 -1.17188
Q15.1406 -1.17188 9.84375 3.03125
Q4.54688 7.23438 3.07812 15.4844" id="ArialMT-73"/>
    <path d="
M42.3906 -175.984
L19.6719 -96.6875
L12.7969 -104.688
L10.9844 -102.781
L25.2969 -85.9844
L46.5781 -160.406
L98.1875 2.78125
Q98.5312 4 100 4
Q100.828 4 101.406 3.40625
Q102 2.82812 102 2
L102 1.60938
L46.2969 -174.812
Q45.7031 -175.984 44.5781 -175.984
z
" id="Cmex10-71"/>
    <path d="
M7.51562 13.2812
Q6.6875 13.2812 6.14062 13.9062
Q5.60938 14.5469 5.60938 15.2812
Q5.60938 16.1094 6.14062 16.6875
Q6.6875 17.2812 7.51562 17.2812
L70.3125 17.2812
Q71.0469 17.2812 71.5781 16.6875
Q72.125 16.1094 72.125 15.2812
Q72.125 14.5469 71.5781 13.9062
Q71.0469 13.2812 70.3125 13.2812
z

M7.51562 32.7188
Q6.6875 32.7188 6.14062 33.2969
Q5.60938 33.8906 5.60938 34.7188
Q5.60938 35.4531 6.14062 36.0781
Q6.6875 36.7188 7.51562 36.7188
L70.3125 36.7188
Q71.0469 36.7188 71.5781 36.0781
Q72.125 35.4531 72.125 34.7188
Q72.125 33.8906 71.5781 33.2969
Q71.0469 32.7188 70.3125 32.7188
z
" id="Cmr10-3d"/>
    <path d="
M8.40625 -14.3125
Q10.5 -17.9219 15.7188 -17.9219
Q20.4531 -17.9219 23.9219 -14.5938
Q27.3906 -11.2812 29.5156 -6.5625
Q31.6406 -1.85938 32.8125 3.07812
Q28.375 -1.125 23.1875 -1.125
Q19.2344 -1.125 16.4531 0.234375
Q13.6719 1.60938 12.125 4.3125
Q10.5938 7.03125 10.5938 10.8906
Q10.5938 14.1562 11.4688 17.5938
Q12.3594 21.0469 13.9375 25.2656
Q15.5312 29.5 16.7031 32.625
Q18.0156 36.2812 18.0156 38.625
Q18.0156 41.6094 15.8281 41.6094
Q11.8594 41.6094 9.29688 37.5312
Q6.73438 33.4531 5.51562 28.4219
Q5.32812 27.7812 4.6875 27.7812
L3.51562 27.7812
Q2.6875 27.7812 2.6875 28.7188
L2.6875 29
Q4.29688 34.9688 7.60938 39.5781
Q10.9375 44.1875 16.0156 44.1875
Q19.5781 44.1875 22.0469 41.8438
Q24.5156 39.5 24.5156 35.8906
Q24.5156 34.0312 23.6875 31.9844
Q23.25 30.7656 21.6875 26.6562
Q20.125 22.5625 19.2812 19.875
Q18.4531 17.1875 17.9219 14.5938
Q17.3906 12.0156 17.3906 9.42188
Q17.3906 6.10938 18.7969 3.8125
Q20.2188 1.51562 23.2969 1.51562
Q29.5 1.51562 34.4219 9.07812
L42 39.8906
Q42.3281 41.2188 43.5469 42.1562
Q44.7812 43.1094 46.1875 43.1094
Q47.4062 43.1094 48.3125 42.3281
Q49.2188 41.5469 49.2188 40.2812
Q49.2188 39.7031 49.125 39.5
L39.2031 -0.296875
Q37.8906 -5.42188 34.375 -10.1094
Q30.8594 -14.7969 25.9062 -17.6562
Q20.9531 -20.5156 15.5781 -20.5156
Q12.9844 -20.5156 10.4375 -19.5
Q7.90625 -18.5 6.34375 -16.5
Q4.78125 -14.5 4.78125 -11.8125
Q4.78125 -9.07812 6.39062 -7.07812
Q8.01562 -5.07812 10.6875 -5.07812
Q12.3125 -5.07812 13.4062 -6.07812
Q14.5 -7.07812 14.5 -8.6875
Q14.5 -10.9844 12.7812 -12.6875
Q11.0781 -14.4062 8.79688 -14.4062
Q8.6875 -14.3594 8.59375 -14.3281
Q8.5 -14.3125 8.40625 -14.3125" id="Cmmi10-79"/>
   </defs>
   <g transform="translate(338.55 22.964)scale(0.14 -0.14)">
    <use transform="translate(0.0 0.640625)" xlink:href="#ArialMT-52"/>
    <use transform="translate(72.216796875 0.640625)" xlink:href="#ArialMT-69"/>
    <use transform="translate(94.43359375 0.640625)" xlink:href="#ArialMT-65"/>
    <use transform="translate(150.048828125 0.640625)" xlink:href="#ArialMT-6d"/>
    <use transform="translate(233.349609375 0.640625)" xlink:href="#ArialMT-61"/>
    <use transform="translate(288.96484375 0.640625)" xlink:href="#ArialMT-6e"/>
    <use transform="translate(344.580078125 0.640625)" xlink:href="#ArialMT-6e"/>
    <use transform="translate(400.1953125 0.640625)" xlink:href="#ArialMT-20"/>
    <use transform="translate(427.978515625 0.640625)" xlink:href="#ArialMT-73"/>
    <use transform="translate(477.978515625 0.640625)" xlink:href="#ArialMT-75"/>
    <use transform="translate(533.59375 0.640625)" xlink:href="#ArialMT-6d"/>
    <use transform="translate(616.89453125 0.640625)" xlink:href="#ArialMT-73"/>
    <use transform="translate(666.89453125 0.640625)" xlink:href="#ArialMT-20"/>
    <use transform="translate(694.677734375 0.640625)" xlink:href="#ArialMT-66"/>
    <use transform="translate(722.4609375 0.640625)" xlink:href="#ArialMT-6f"/>
    <use transform="translate(778.076171875 0.640625)" xlink:href="#ArialMT-72"/>
    <use transform="translate(811.376953125 0.640625)" xlink:href="#ArialMT-20"/>
    <use transform="translate(839.16015625 0.640625)" xlink:href="#Cmmi10-79"/>
    <use transform="translate(905.7421875 0.640625)" xlink:href="#Cmr10-3d"/>
    <use transform="translate(989.80078125 118.296875)scale(0.675154093237)" xlink:href="#Cmex10-71"/>
    <use transform="translate(1069.80078125 0.6078125)" xlink:href="#Cmr10-31"/>
    <use transform="translate(1119.80078125 0.6078125)" xlink:href="#Cmsy10-a1"/>
    <use transform="translate(1197.48632812 0.6078125)" xlink:href="#Cmmi10-78"/>
    <use transform="translate(1254.56640625 43.1234375)scale(0.7)" xlink:href="#Cmr10-32"/>
    <path d="
M1057.3 114.5
L1057.3 120.75
L1334.07 120.75
L1334.07 114.5
L1057.3 114.5
z
"/>
   </g>
  </g>
 </g>
 <defs>
  <clipPath id="p1bcc424441">
   <rect height="200.88" width="304.363636364" x="473.236363636" y="25.92"/>
  </clipPath>
  <clipPath id="p451adb6d17">
   <rect height="200.88" width="304.363636364" x="108.0" y="25.92"/>
  </clipPath>
 </defs>
</svg>
